<?xml version="1.0" encoding="utf-8"?>
<!-- Generator: Adobe Illustrator 27.5.0, SVG Export Plug-In . SVG Version: 6.00 Build 0)  -->
<svg version="1.1" id="Layer_1" xmlns="http://www.w3.org/2000/svg" xmlns:xlink="http://www.w3.org/1999/xlink" x="0px" y="0px"
	 viewBox="0 0 450 400" style="enable-background:new 0 0 450 400;" xml:space="preserve">
<radialGradient id="SVGID_1_" cx="225.0003" cy="199.8788" r="318.859" gradientTransform="matrix(1 0 0 0.8889 -3.000000e-04 22.3278)" gradientUnits="userSpaceOnUse">
	<stop  offset="0.3978" style="stop-color:#FFFFFF"/>
	<stop  offset="0.6017" style="stop-color:#FBFBFB"/>
	<stop  offset="0.8045" style="stop-color:#EFEFEF"/>
	<stop  offset="1" style="stop-color:#DCDCDC"/>
</radialGradient>
<rect style="fill:url(#SVGID_1_);" width="450" height="400"/>
<g>
	<path style="fill:#78B400;" d="M372.5,246.638c-0.137,0-0.276-0.017-0.416-0.051l-1.111-0.276
		c-0.921-0.229-1.482-1.161-1.253-2.083c0.228-0.92,1.155-1.479,2.083-1.253l1.111,0.276c0.921,0.229,1.482,1.161,1.253,2.083
		C373.973,246.115,373.271,246.638,372.5,246.638z M365.828,244.982c-0.137,0-0.276-0.017-0.415-0.051l-1.112-0.276
		c-0.922-0.229-1.482-1.161-1.254-2.082c0.229-0.921,1.163-1.481,2.082-1.254l1.112,0.276c0.922,0.229,1.482,1.161,1.254,2.082
		C367.301,244.46,366.6,244.982,365.828,244.982z M359.155,243.326c-0.137,0-0.275-0.016-0.414-0.051L357.629,243
		c-0.922-0.227-1.483-1.159-1.255-2.081c0.228-0.921,1.16-1.488,2.081-1.255l1.112,0.275c0.921,0.228,1.483,1.159,1.255,2.081
		C360.629,242.803,359.927,243.326,359.155,243.326z M352.482,241.671c-0.137,0-0.275-0.016-0.414-0.051l-1.112-0.275
		c-0.921-0.227-1.483-1.159-1.255-2.081c0.227-0.921,1.161-1.487,2.081-1.255l1.112,0.275c0.922,0.228,1.483,1.159,1.255,2.081
		C353.956,241.148,353.254,241.671,352.482,241.671z M345.81,240.016c-0.137,0-0.275-0.016-0.414-0.051l-1.112-0.275
		c-0.922-0.228-1.483-1.159-1.255-2.081c0.228-0.921,1.162-1.486,2.081-1.255l1.112,0.275c0.922,0.227,1.483,1.159,1.255,2.081
		C347.283,239.492,346.581,240.016,345.81,240.016z M339.137,238.36c-0.137,0-0.276-0.017-0.415-0.051l-1.112-0.276
		c-0.922-0.229-1.482-1.161-1.254-2.082c0.229-0.921,1.163-1.48,2.082-1.254l1.112,0.276c0.922,0.229,1.482,1.161,1.254,2.082
		C340.609,237.838,339.908,238.36,339.137,238.36z M332.464,236.705c-0.137,0-0.276-0.017-0.416-0.051l-1.111-0.276
		c-0.921-0.229-1.482-1.161-1.253-2.083c0.229-0.92,1.156-1.478,2.083-1.253l1.111,0.276c0.921,0.229,1.482,1.161,1.253,2.083
		C333.936,236.183,333.235,236.705,332.464,236.705z M325.792,235.049c-0.137,0-0.275-0.016-0.414-0.051l-1.112-0.275
		c-0.921-0.228-1.483-1.159-1.255-2.081c0.228-0.921,1.16-1.488,2.081-1.255l1.112,0.275c0.922,0.228,1.483,1.159,1.255,2.081
		C327.266,234.525,326.563,235.049,325.792,235.049z M319.119,233.394c-0.137,0-0.275-0.016-0.414-0.051l-1.112-0.275
		c-0.922-0.228-1.483-1.159-1.255-2.081c0.228-0.921,1.161-1.487,2.081-1.255l1.112,0.275c0.922,0.228,1.483,1.159,1.255,2.081
		C320.593,232.87,319.891,233.394,319.119,233.394z M312.446,231.738c-0.137,0-0.275-0.016-0.414-0.051l-1.112-0.275
		c-0.921-0.227-1.483-1.159-1.255-2.081c0.228-0.921,1.162-1.486,2.081-1.255l1.112,0.275c0.922,0.228,1.483,1.159,1.255,2.081
		C313.92,231.215,313.218,231.738,312.446,231.738z M305.773,230.083c-0.137,0-0.276-0.017-0.415-0.051l-1.112-0.276
		c-0.922-0.229-1.482-1.161-1.254-2.082c0.229-0.921,1.163-1.48,2.082-1.254l1.112,0.276c0.922,0.229,1.482,1.161,1.254,2.082
		C307.246,229.561,306.545,230.083,305.773,230.083z M299.101,228.428c-0.137,0-0.276-0.017-0.416-0.051l-1.111-0.276
		c-0.921-0.23-1.482-1.161-1.253-2.083c0.23-0.92,1.156-1.479,2.083-1.253l1.111,0.276c0.921,0.229,1.483,1.161,1.253,2.083
		C300.573,227.905,299.872,228.428,299.101,228.428z M292.429,226.771c-0.137,0-0.275-0.016-0.414-0.051l-1.112-0.275
		c-0.922-0.227-1.483-1.159-1.255-2.081c0.228-0.921,1.16-1.488,2.081-1.255l1.112,0.275c0.922,0.228,1.483,1.159,1.255,2.081
		C293.902,226.248,293.2,226.771,292.429,226.771z M285.756,225.116c-0.137,0-0.275-0.016-0.414-0.051l-1.112-0.275
		c-0.922-0.227-1.483-1.159-1.255-2.081c0.228-0.921,1.161-1.487,2.081-1.255l1.112,0.275c0.921,0.227,1.483,1.159,1.255,2.081
		C287.229,224.593,286.527,225.116,285.756,225.116z M279.083,223.461c-0.137,0-0.275-0.016-0.414-0.051l-1.112-0.275
		c-0.922-0.228-1.483-1.159-1.255-2.081c0.228-0.921,1.162-1.486,2.081-1.255l1.112,0.275c0.922,0.228,1.483,1.159,1.255,2.081
		C280.557,222.938,279.854,223.461,279.083,223.461z M272.41,221.806c-0.137,0-0.276-0.017-0.415-0.051l-1.112-0.276
		c-0.922-0.229-1.482-1.161-1.254-2.082c0.228-0.921,1.162-1.48,2.082-1.254l1.112,0.276c0.922,0.229,1.483,1.161,1.254,2.082
		C273.883,221.283,273.182,221.806,272.41,221.806z M265.737,220.15c-0.137,0-0.276-0.017-0.415-0.051l-1.112-0.276
		c-0.922-0.229-1.482-1.161-1.254-2.082c0.229-0.921,1.16-1.479,2.082-1.254l1.112,0.276c0.922,0.229,1.482,1.161,1.254,2.082
		C267.21,219.628,266.509,220.15,265.737,220.15z M259.064,218.495c-0.137,0-0.276-0.017-0.416-0.051l-1.111-0.276
		c-0.921-0.229-1.482-1.161-1.253-2.083c0.229-0.92,1.156-1.48,2.083-1.253l1.111,0.276c0.921,0.23,1.482,1.161,1.253,2.083
		C260.537,217.973,259.836,218.495,259.064,218.495z M252.393,216.839c-0.137,0-0.275-0.016-0.414-0.051l-1.112-0.275
		c-0.922-0.227-1.483-1.159-1.255-2.081c0.228-0.921,1.161-1.488,2.081-1.255l1.112,0.275c0.922,0.228,1.483,1.159,1.255,2.081
		C253.866,216.315,253.164,216.839,252.393,216.839z M245.72,215.184c-0.137,0-0.275-0.016-0.414-0.051l-1.112-0.275
		c-0.922-0.228-1.483-1.159-1.255-2.081c0.228-0.921,1.161-1.487,2.081-1.255l1.112,0.275c0.921,0.227,1.483,1.159,1.255,2.081
		C247.193,214.66,246.491,215.184,245.72,215.184z M239.047,213.528c-0.137,0-0.276-0.017-0.415-0.051l-1.112-0.276
		c-0.922-0.229-1.482-1.161-1.254-2.082s1.162-1.48,2.082-1.254l1.112,0.276c0.922,0.229,1.482,1.161,1.254,2.082
		C240.52,213.006,239.818,213.528,239.047,213.528z M232.374,211.873c-0.137,0-0.276-0.017-0.415-0.051l-1.112-0.276
		c-0.922-0.229-1.482-1.161-1.254-2.082c0.23-0.921,1.163-1.479,2.082-1.254l1.112,0.276c0.922,0.229,1.482,1.161,1.254,2.082
		C233.847,211.351,233.145,211.873,232.374,211.873z M225.702,210.218c-0.137,0-0.277-0.017-0.416-0.051l-1.112-0.276
		c-0.921-0.229-1.482-1.161-1.253-2.082c0.229-0.922,1.161-1.48,2.083-1.254l1.112,0.276c0.921,0.229,1.482,1.161,1.254,2.082
		C227.175,209.695,226.473,210.218,225.702,210.218z"/>
	<path style="fill:#006482;" d="M76.93,246.638c-0.771,0-1.472-0.522-1.667-1.305c-0.229-0.921,0.333-1.853,1.253-2.082l1.112-0.276
		c0.921-0.227,1.854,0.332,2.083,1.254c0.229,0.921-0.333,1.854-1.253,2.082l-1.112,0.276
		C77.206,246.621,77.067,246.638,76.93,246.638z M83.603,244.982c-0.771,0-1.472-0.522-1.667-1.304
		c-0.229-0.922,0.332-1.854,1.254-2.083l1.112-0.276c0.92-0.227,1.854,0.332,2.082,1.253c0.229,0.922-0.332,1.855-1.253,2.083
		l-1.112,0.276C83.879,244.966,83.74,244.982,83.603,244.982z M90.275,243.326c-0.771,0-1.473-0.523-1.667-1.306
		c-0.228-0.922,0.334-1.853,1.255-2.081l1.112-0.275c0.92-0.235,1.853,0.333,2.081,1.255c0.228,0.922-0.334,1.854-1.255,2.081
		l-1.112,0.275C90.551,243.311,90.412,243.326,90.275,243.326z M96.948,241.671c-0.771,0-1.473-0.523-1.667-1.306
		c-0.228-0.922,0.334-1.854,1.255-2.081l1.112-0.275c0.92-0.234,1.853,0.334,2.082,1.255c0.228,0.922-0.334,1.854-1.255,2.081
		l-1.112,0.275C97.224,241.655,97.085,241.671,96.948,241.671z M103.621,240.016c-0.771,0-1.473-0.522-1.667-1.306
		c-0.228-0.921,0.334-1.854,1.255-2.081l1.112-0.275c0.919-0.233,1.852,0.333,2.081,1.255c0.228,0.921-0.334,1.854-1.255,2.081
		l-1.112,0.275C103.896,240,103.757,240.016,103.621,240.016z M110.293,238.36c-0.771,0-1.472-0.522-1.667-1.305
		c-0.229-0.921,0.333-1.854,1.253-2.082l1.112-0.276c0.919-0.228,1.854,0.332,2.083,1.254c0.229,0.921-0.333,1.854-1.253,2.082
		l-1.112,0.276C110.57,238.344,110.43,238.36,110.293,238.36z M116.966,236.705c-0.771,0-1.472-0.522-1.667-1.305
		c-0.229-0.921,0.333-1.854,1.253-2.082l1.112-0.276c0.92-0.227,1.854,0.332,2.083,1.254c0.229,0.921-0.333,1.854-1.254,2.082
		l-1.112,0.276C117.243,236.689,117.103,236.705,116.966,236.705z M123.639,235.049c-0.771,0-1.473-0.522-1.667-1.306
		c-0.228-0.921,0.334-1.854,1.255-2.081l1.112-0.275c0.92-0.236,1.853,0.332,2.081,1.255c0.228,0.921-0.334,1.854-1.255,2.081
		l-1.112,0.275C123.915,235.033,123.775,235.049,123.639,235.049z M130.311,233.394c-0.771,0-1.473-0.523-1.667-1.306
		c-0.228-0.922,0.334-1.854,1.255-2.081l1.112-0.275c0.919-0.235,1.853,0.334,2.082,1.255c0.228,0.922-0.334,1.854-1.255,2.081
		l-1.112,0.275C130.587,233.378,130.448,233.394,130.311,233.394z M136.984,231.738c-0.771,0-1.473-0.523-1.667-1.306
		c-0.228-0.922,0.334-1.854,1.255-2.081l1.112-0.275c0.919-0.234,1.854,0.334,2.081,1.255c0.228,0.922-0.334,1.854-1.255,2.081
		l-1.112,0.275C137.26,231.723,137.121,231.738,136.984,231.738z M143.657,230.083c-0.771,0-1.472-0.522-1.666-1.304
		c-0.229-0.922,0.332-1.854,1.253-2.083l1.112-0.276c0.92-0.227,1.854,0.332,2.083,1.253c0.229,0.922-0.332,1.854-1.253,2.083
		l-1.112,0.276C143.934,230.066,143.794,230.083,143.657,230.083z M150.329,228.428c-0.771,0-1.472-0.522-1.667-1.305
		c-0.229-0.921,0.333-1.854,1.253-2.082l1.112-0.276c0.921-0.227,1.854,0.332,2.083,1.254c0.229,0.921-0.333,1.854-1.253,2.082
		l-1.112,0.276C150.606,228.411,150.466,228.428,150.329,228.428z M157.002,226.771c-0.771,0-1.473-0.523-1.667-1.306
		c-0.228-0.922,0.334-1.854,1.255-2.081l1.112-0.275c0.92-0.236,1.853,0.334,2.082,1.255c0.228,0.922-0.334,1.854-1.255,2.081
		l-1.112,0.275C157.278,226.756,157.139,226.771,157.002,226.771z M163.675,225.116c-0.771,0-1.473-0.522-1.667-1.306
		c-0.228-0.921,0.334-1.854,1.255-2.081l1.112-0.275c0.92-0.235,1.853,0.332,2.081,1.255c0.228,0.921-0.334,1.854-1.255,2.081
		l-1.112,0.275C163.951,225.101,163.811,225.116,163.675,225.116z M170.347,223.461c-0.771,0-1.473-0.523-1.667-1.306
		c-0.228-0.922,0.334-1.854,1.255-2.081l1.112-0.275c0.919-0.234,1.854,0.334,2.081,1.255c0.228,0.922-0.334,1.854-1.255,2.081
		l-1.112,0.275C170.623,223.445,170.484,223.461,170.347,223.461z M177.02,221.806c-0.771,0-1.472-0.522-1.667-1.304
		c-0.229-0.922,0.332-1.854,1.253-2.083l1.112-0.276c0.921-0.227,1.854,0.332,2.083,1.253c0.229,0.922-0.332,1.855-1.253,2.083
		l-1.112,0.276C177.297,221.789,177.157,221.806,177.02,221.806z M183.693,220.15c-0.771,0-1.472-0.523-1.667-1.304
		c-0.229-0.922,0.332-1.854,1.253-2.083l1.112-0.276c0.919-0.227,1.854,0.332,2.082,1.253c0.229,0.922-0.332,1.854-1.253,2.083
		l-1.112,0.276C183.97,220.134,183.83,220.15,183.693,220.15z M190.365,218.495c-0.771,0-1.472-0.522-1.666-1.305
		c-0.229-0.921,0.333-1.854,1.253-2.082l1.112-0.276c0.921-0.226,1.854,0.332,2.083,1.254c0.229,0.921-0.333,1.854-1.253,2.082
		l-1.112,0.276C190.642,218.479,190.502,218.495,190.365,218.495z M197.038,216.839c-0.771,0-1.473-0.522-1.667-1.306
		c-0.228-0.921,0.334-1.854,1.255-2.081l1.112-0.275c0.92-0.235,1.853,0.332,2.081,1.255c0.228,0.921-0.334,1.854-1.255,2.081
		l-1.112,0.275C197.314,216.823,197.175,216.839,197.038,216.839z M203.71,215.184c-0.771,0-1.473-0.523-1.667-1.306
		c-0.228-0.922,0.334-1.854,1.255-2.081l1.112-0.275c0.919-0.234,1.853,0.334,2.082,1.255c0.228,0.922-0.334,1.854-1.255,2.081
		l-1.112,0.275C203.986,215.168,203.847,215.184,203.71,215.184z M210.383,213.528c-0.771,0-1.472-0.522-1.667-1.305
		c-0.229-0.921,0.333-1.854,1.253-2.082l1.112-0.276c0.922-0.227,1.854,0.332,2.083,1.254c0.229,0.921-0.333,1.854-1.253,2.082
		l-1.112,0.276C210.66,213.512,210.52,213.528,210.383,213.528z M217.056,211.873c-0.771,0-1.472-0.522-1.667-1.304
		c-0.229-0.922,0.332-1.855,1.254-2.083l1.112-0.276c0.92-0.227,1.854,0.332,2.082,1.253c0.229,0.922-0.332,1.854-1.253,2.083
		l-1.112,0.276C217.333,211.856,217.193,211.873,217.056,211.873z M223.729,210.218c-0.771,0-1.472-0.523-1.667-1.305
		c-0.229-0.921,0.333-1.854,1.253-2.082l1.112-0.276c0.922-0.226,1.855,0.332,2.083,1.254c0.229,0.921-0.333,1.854-1.254,2.082
		l-1.112,0.276C224.005,210.201,223.866,210.218,223.729,210.218z"/>
	<g>
		<path style="fill:#006482;" d="M224.843,209.941c-0.695,0-1.349-0.424-1.609-1.112c-0.335-0.889,0.114-1.88,1.002-2.215
			l0.536-0.202c0.891-0.336,1.879,0.114,2.214,1.002c0.335,0.889-0.113,1.88-1.001,2.215l-0.536,0.202
			C225.249,209.906,225.044,209.941,224.843,209.941z"/>
		<path style="fill:#006482;" d="M230.64,207.759c-0.694,0-1.349-0.424-1.608-1.113c-0.335-0.888,0.114-1.879,1.003-2.214
			l1.053-0.396c0.887-0.335,1.88,0.114,2.214,1.003c0.335,0.888-0.114,1.879-1.003,2.214l-1.053,0.396
			C231.046,207.724,230.841,207.759,230.64,207.759z M236.953,205.382c-0.694,0-1.349-0.424-1.608-1.113
			c-0.335-0.888,0.114-1.879,1.003-2.214l1.053-0.396c0.888-0.333,1.879,0.114,2.214,1.003c0.335,0.888-0.114,1.879-1.003,2.214
			l-1.053,0.396C237.359,205.347,237.154,205.382,236.953,205.382z M243.268,203.004c-0.694,0-1.349-0.424-1.608-1.113
			c-0.335-0.889,0.114-1.879,1.003-2.214l1.052-0.396c0.889-0.334,1.879,0.115,2.214,1.003c0.335,0.888-0.114,1.879-1.003,2.214
			l-1.052,0.396C243.674,202.969,243.469,203.004,243.268,203.004z M249.581,200.627c-0.695,0-1.35-0.425-1.608-1.114
			c-0.335-0.888,0.115-1.879,1.003-2.214l1.053-0.396c0.889-0.333,1.88,0.115,2.214,1.004c0.335,0.888-0.115,1.879-1.003,2.214
			l-1.053,0.396C249.987,200.591,249.782,200.627,249.581,200.627z M255.895,198.249c-0.694,0-1.35-0.425-1.608-1.114
			c-0.335-0.888,0.114-1.879,1.003-2.214l1.052-0.396c0.887-0.334,1.879,0.115,2.214,1.003c0.335,0.888-0.114,1.879-1.003,2.214
			l-1.052,0.396C256.302,198.214,256.097,198.249,255.895,198.249z M262.209,195.872c-0.695,0-1.35-0.425-1.608-1.114
			c-0.335-0.888,0.115-1.879,1.003-2.214l1.053-0.396c0.888-0.333,1.88,0.115,2.214,1.004c0.335,0.888-0.115,1.879-1.003,2.214
			l-1.053,0.396C262.615,195.836,262.41,195.872,262.209,195.872z M268.523,193.495c-0.694,0-1.349-0.425-1.608-1.114
			c-0.335-0.888,0.114-1.879,1.003-2.214l1.052-0.396c0.888-0.333,1.881,0.115,2.214,1.003c0.335,0.888-0.114,1.879-1.003,2.214
			l-1.052,0.396C268.93,193.459,268.725,193.495,268.523,193.495z M274.837,191.117c-0.695,0-1.35-0.425-1.608-1.114
			c-0.335-0.888,0.115-1.879,1.003-2.214l1.053-0.396c0.889-0.332,1.88,0.115,2.214,1.004c0.335,0.888-0.115,1.879-1.003,2.214
			l-1.053,0.396C275.243,191.081,275.038,191.117,274.837,191.117z M281.15,188.74c-0.695,0-1.35-0.425-1.608-1.114
			c-0.335-0.888,0.115-1.879,1.003-2.214l1.053-0.396c0.888-0.333,1.881,0.115,2.214,1.004c0.335,0.888-0.115,1.879-1.003,2.214
			l-1.053,0.396C281.557,188.704,281.352,188.74,281.15,188.74z M287.465,186.362c-0.695,0-1.35-0.425-1.608-1.114
			c-0.335-0.888,0.115-1.879,1.003-2.214l1.053-0.396c0.888-0.334,1.881,0.115,2.214,1.004c0.335,0.888-0.115,1.879-1.003,2.214
			l-1.053,0.396C287.871,186.327,287.666,186.362,287.465,186.362z M293.778,183.985c-0.695,0-1.35-0.425-1.608-1.114
			c-0.335-0.888,0.115-1.879,1.003-2.214l1.053-0.396c0.889-0.332,1.88,0.115,2.214,1.004c0.335,0.888-0.115,1.879-1.003,2.214
			l-1.053,0.396C294.185,183.949,293.979,183.985,293.778,183.985z M300.093,181.607c-0.694,0-1.35-0.425-1.608-1.114
			c-0.335-0.888,0.114-1.879,1.003-2.214l1.052-0.396c0.889-0.334,1.879,0.115,2.214,1.003c0.335,0.888-0.114,1.879-1.003,2.214
			l-1.052,0.396C300.499,181.572,300.294,181.607,300.093,181.607z M306.406,179.23c-0.695,0-1.35-0.425-1.608-1.114
			c-0.335-0.888,0.115-1.879,1.003-2.214l1.053-0.396c0.888-0.332,1.88,0.115,2.214,1.004c0.335,0.888-0.115,1.879-1.003,2.214
			l-1.053,0.396C306.813,179.194,306.607,179.23,306.406,179.23z M312.721,176.852c-0.694,0-1.349-0.425-1.608-1.114
			c-0.335-0.888,0.114-1.879,1.003-2.214l1.052-0.396c0.888-0.334,1.881,0.115,2.214,1.003c0.335,0.888-0.114,1.879-1.003,2.214
			l-1.052,0.396C313.127,176.817,312.922,176.852,312.721,176.852z M319.034,174.476c-0.694,0-1.349-0.425-1.608-1.113
			c-0.335-0.889,0.114-1.88,1.003-2.214l1.053-0.396c0.887-0.334,1.88,0.115,2.214,1.002c0.335,0.889-0.114,1.88-1.003,2.214
			l-1.053,0.396C319.44,174.44,319.235,174.476,319.034,174.476z M325.349,172.098c-0.694,0-1.349-0.424-1.608-1.113
			c-0.335-0.888,0.114-1.88,1.002-2.215l1.052-0.396c0.888-0.333,1.88,0.113,2.215,1.002c0.335,0.888-0.114,1.88-1.002,2.215
			l-1.052,0.396C325.755,172.063,325.551,172.098,325.349,172.098z M331.662,169.721c-0.694,0-1.349-0.425-1.608-1.113
			c-0.335-0.889,0.114-1.88,1.003-2.214l1.053-0.396c0.888-0.333,1.879,0.115,2.214,1.002c0.335,0.889-0.114,1.88-1.003,2.214
			l-1.053,0.396C332.068,169.685,331.863,169.721,331.662,169.721z"/>
		<path style="fill:#006482;" d="M337.977,167.343c-0.695,0-1.35-0.425-1.608-1.114c-0.335-0.888,0.115-1.879,1.003-2.214
			l0.536-0.202c0.889-0.333,1.88,0.115,2.214,1.004c0.335,0.888-0.115,1.879-1.003,2.214l-0.536,0.202
			C338.383,167.307,338.178,167.343,337.977,167.343z"/>
	</g>
	<g>
		<path style="fill:#78B400;" d="M224.999,209.941c-0.201,0-0.406-0.035-0.606-0.11l-0.536-0.202
			c-0.888-0.335-1.336-1.326-1.002-2.215c0.335-0.888,1.327-1.336,2.215-1.002l0.536,0.202c0.888,0.335,1.337,1.326,1.002,2.215
			C226.349,209.518,225.694,209.941,224.999,209.941z"/>
		<path style="fill:#78B400;" d="M219.202,207.759c-0.201,0-0.406-0.035-0.605-0.11l-1.052-0.396
			c-0.888-0.335-1.337-1.326-1.002-2.215c0.335-0.888,1.326-1.336,2.214-1.002l1.052,0.396c0.888,0.335,1.337,1.326,1.002,2.215
			C220.551,207.335,219.896,207.759,219.202,207.759z M212.888,205.382c-0.201,0-0.406-0.035-0.605-0.11l-1.052-0.396
			c-0.888-0.335-1.337-1.326-1.003-2.215c0.336-0.888,1.326-1.336,2.214-1.002l1.052,0.396c0.888,0.335,1.337,1.326,1.003,2.215
			C214.237,204.958,213.582,205.382,212.888,205.382z M206.574,203.004c-0.201,0-0.405-0.035-0.605-0.11l-1.052-0.396
			c-0.888-0.335-1.337-1.326-1.003-2.214c0.335-0.888,1.325-1.337,2.214-1.003l1.052,0.396c0.888,0.334,1.337,1.325,1.003,2.214
			C207.923,202.579,207.269,203.004,206.574,203.004z M200.26,200.627c-0.201,0-0.405-0.036-0.605-0.111l-1.052-0.396
			c-0.888-0.334-1.337-1.325-1.003-2.214c0.335-0.888,1.324-1.337,2.214-1.003l1.052,0.396c0.888,0.334,1.337,1.325,1.003,2.214
			C201.609,200.202,200.955,200.627,200.26,200.627z M193.946,198.249c-0.201,0-0.405-0.036-0.605-0.111l-1.052-0.396
			c-0.888-0.334-1.337-1.325-1.003-2.214c0.335-0.888,1.326-1.336,2.214-1.003l1.052,0.396c0.888,0.334,1.337,1.325,1.003,2.214
			C195.295,197.825,194.641,198.249,193.946,198.249z M187.632,195.872c-0.201,0-0.405-0.036-0.605-0.111l-1.052-0.396
			c-0.888-0.334-1.337-1.325-1.003-2.214c0.335-0.888,1.325-1.337,2.214-1.003l1.052,0.396c0.888,0.334,1.337,1.325,1.003,2.214
			C188.981,195.447,188.327,195.872,187.632,195.872z M181.318,193.495c-0.201,0-0.405-0.036-0.605-0.111l-1.052-0.396
			c-0.888-0.334-1.337-1.325-1.003-2.214c0.335-0.888,1.325-1.338,2.214-1.003l1.052,0.396c0.888,0.334,1.337,1.325,1.003,2.214
			C182.667,193.07,182.013,193.495,181.318,193.495z M175.004,191.117c-0.201,0-0.405-0.036-0.605-0.111l-1.052-0.396
			c-0.888-0.334-1.337-1.325-1.003-2.214c0.334-0.888,1.324-1.336,2.214-1.003l1.052,0.396c0.888,0.334,1.337,1.325,1.003,2.214
			C176.354,190.692,175.699,191.117,175.004,191.117z M168.69,188.74c-0.201,0-0.405-0.036-0.605-0.111l-1.052-0.396
			c-0.888-0.334-1.337-1.325-1.003-2.214c0.334-0.888,1.326-1.337,2.214-1.003l1.052,0.396c0.888,0.334,1.337,1.325,1.003,2.214
			C170.04,188.315,169.385,188.74,168.69,188.74z M162.376,186.362c-0.201,0-0.405-0.036-0.605-0.111l-1.052-0.396
			c-0.888-0.334-1.337-1.325-1.003-2.214c0.335-0.888,1.325-1.336,2.214-1.003l1.052,0.396c0.888,0.334,1.337,1.325,1.003,2.214
			C163.726,185.938,163.071,186.362,162.376,186.362z M156.062,183.985c-0.201,0-0.405-0.036-0.605-0.111l-1.052-0.396
			c-0.888-0.334-1.337-1.325-1.003-2.214c0.335-0.888,1.324-1.337,2.214-1.003l1.052,0.396c0.888,0.334,1.337,1.325,1.003,2.214
			C157.412,183.56,156.757,183.985,156.062,183.985z M149.748,181.607c-0.201,0-0.405-0.036-0.605-0.111l-1.052-0.396
			c-0.888-0.334-1.337-1.325-1.003-2.214c0.335-0.888,1.326-1.338,2.214-1.003l1.052,0.396c0.888,0.334,1.337,1.325,1.003,2.214
			C151.098,181.183,150.443,181.607,149.748,181.607z M143.434,179.23c-0.201,0-0.405-0.036-0.605-0.111l-1.052-0.396
			c-0.888-0.334-1.337-1.325-1.003-2.214c0.335-0.888,1.325-1.336,2.214-1.003l1.052,0.396c0.888,0.334,1.337,1.325,1.003,2.214
			C144.784,178.805,144.129,179.23,143.434,179.23z M137.12,176.852c-0.201,0-0.405-0.036-0.605-0.111l-1.052-0.396
			c-0.888-0.334-1.337-1.325-1.003-2.214c0.334-0.888,1.325-1.337,2.214-1.003l1.052,0.396c0.888,0.334,1.337,1.325,1.003,2.214
			C138.47,176.428,137.815,176.852,137.12,176.852z M130.806,174.475c-0.201,0-0.405-0.036-0.605-0.111l-1.052-0.396
			c-0.888-0.334-1.337-1.325-1.003-2.214c0.335-0.888,1.324-1.336,2.214-1.003l1.052,0.396c0.888,0.334,1.337,1.325,1.003,2.214
			C132.156,174.05,131.501,174.475,130.806,174.475z M124.492,172.098c-0.201,0-0.405-0.036-0.605-0.111l-1.052-0.396
			c-0.888-0.334-1.337-1.325-1.003-2.214c0.334-0.888,1.326-1.337,2.214-1.003l1.052,0.396c0.888,0.334,1.337,1.325,1.003,2.214
			C125.842,171.673,125.188,172.098,124.492,172.098z M118.178,169.72c-0.201,0-0.405-0.036-0.605-0.111l-1.052-0.396
			c-0.888-0.334-1.337-1.325-1.003-2.214c0.334-0.888,1.325-1.338,2.214-1.003l1.052,0.396c0.888,0.334,1.337,1.325,1.003,2.214
			C119.528,169.295,118.873,169.72,118.178,169.72z"/>
		<path style="fill:#78B400;" d="M111.864,167.343c-0.201,0-0.405-0.036-0.604-0.11l-0.536-0.202
			c-0.889-0.335-1.338-1.326-1.004-2.214c0.334-0.888,1.325-1.337,2.214-1.004l0.536,0.202c0.889,0.335,1.338,1.326,1.004,2.214
			C113.214,166.918,112.56,167.343,111.864,167.343z"/>
	</g>
	<path style="fill:#006482;" d="M332.399,326.226c-0.459,0-0.917-0.183-1.255-0.544l-0.783-0.837
		c-0.648-0.693-0.612-1.781,0.08-2.43c0.694-0.649,1.782-0.612,2.43,0.08l0.783,0.837c0.648,0.693,0.612,1.781-0.08,2.43
		C333.242,326.072,332.82,326.226,332.399,326.226z M327.701,321.206c-0.459,0-0.917-0.183-1.255-0.544l-0.783-0.837
		c-0.648-0.693-0.612-1.781,0.08-2.43c0.694-0.649,1.781-0.613,2.43,0.08l0.783,0.837c0.648,0.693,0.612,1.781-0.08,2.43
		C328.544,321.053,328.122,321.206,327.701,321.206z M323.004,316.186c-0.459,0-0.917-0.183-1.255-0.544l-0.783-0.837
		c-0.648-0.693-0.612-1.781,0.08-2.43c0.694-0.649,1.781-0.612,2.43,0.08l0.783,0.837c0.648,0.693,0.612,1.781-0.08,2.43
		C323.847,316.033,323.425,316.186,323.004,316.186z M318.306,311.167c-0.459,0-0.917-0.183-1.255-0.544l-0.783-0.837
		c-0.648-0.693-0.612-1.781,0.08-2.43c0.693-0.649,1.782-0.612,2.43,0.08l0.783,0.837c0.649,0.693,0.612,1.781-0.08,2.43
		C319.148,311.014,318.727,311.167,318.306,311.167z M313.607,306.147c-0.459,0-0.917-0.183-1.255-0.544l-0.783-0.837
		c-0.648-0.693-0.612-1.781,0.08-2.43c0.694-0.649,1.782-0.613,2.43,0.08l0.783,0.837c0.648,0.693,0.612,1.781-0.08,2.43
		C314.45,305.994,314.028,306.147,313.607,306.147z M308.91,301.128c-0.458,0-0.916-0.183-1.254-0.544l-0.783-0.836
		c-0.649-0.692-0.614-1.78,0.079-2.429c0.69-0.647,1.779-0.614,2.429,0.079l0.783,0.836c0.649,0.692,0.614,1.78-0.079,2.429
		C309.754,300.974,309.332,301.128,308.91,301.128z M304.212,296.108c-0.458,0-0.916-0.183-1.254-0.544l-0.783-0.836
		c-0.649-0.692-0.614-1.78,0.079-2.429c0.69-0.647,1.78-0.615,2.429,0.079l0.783,0.836c0.649,0.692,0.614,1.78-0.079,2.429
		C305.056,295.954,304.634,296.108,304.212,296.108z M299.514,291.089c-0.458,0-0.916-0.183-1.254-0.544l-0.783-0.836
		c-0.65-0.692-0.614-1.78,0.079-2.429c0.69-0.647,1.779-0.614,2.429,0.079l0.783,0.836c0.649,0.692,0.614,1.78-0.079,2.429
		C300.357,290.935,299.935,291.089,299.514,291.089z M294.816,286.069c-0.458,0-0.916-0.183-1.254-0.544l-0.783-0.836
		c-0.649-0.692-0.614-1.78,0.079-2.429c0.691-0.647,1.78-0.615,2.429,0.079l0.783,0.836c0.649,0.692,0.614,1.78-0.079,2.429
		C295.66,285.915,295.238,286.069,294.816,286.069z M290.118,281.05c-0.458,0-0.916-0.183-1.254-0.544l-0.783-0.836
		c-0.65-0.692-0.614-1.78,0.079-2.429c0.69-0.647,1.779-0.614,2.429,0.079l0.783,0.836c0.649,0.692,0.614,1.78-0.079,2.429
		C290.962,280.896,290.54,281.05,290.118,281.05z M285.42,276.031c-0.459,0-0.917-0.183-1.256-0.545l-0.782-0.837
		c-0.648-0.693-0.611-1.781,0.082-2.43c0.694-0.647,1.779-0.613,2.43,0.082l0.782,0.837c0.648,0.693,0.611,1.781-0.082,2.43
		C286.262,275.878,285.841,276.031,285.42,276.031z M280.723,271.012c-0.459,0-0.917-0.183-1.255-0.544l-0.783-0.837
		c-0.648-0.693-0.612-1.781,0.08-2.43c0.693-0.648,1.781-0.612,2.43,0.08l0.783,0.837c0.649,0.693,0.612,1.781-0.08,2.43
		C281.565,270.858,281.144,271.012,280.723,271.012z M276.024,265.992c-0.459,0-0.917-0.183-1.255-0.544l-0.783-0.837
		c-0.648-0.693-0.612-1.781,0.08-2.43c0.693-0.649,1.782-0.613,2.43,0.08l0.783,0.837c0.648,0.693,0.612,1.781-0.08,2.43
		C276.867,265.839,276.445,265.992,276.024,265.992z M271.326,260.973c-0.459,0-0.917-0.183-1.256-0.545l-0.782-0.837
		c-0.648-0.693-0.611-1.781,0.082-2.43c0.694-0.647,1.78-0.612,2.43,0.082l0.782,0.837c0.648,0.693,0.611,1.781-0.082,2.43
		C272.168,260.819,271.747,260.973,271.326,260.973z M266.629,255.953c-0.459,0-0.917-0.183-1.255-0.544l-0.783-0.837
		c-0.648-0.693-0.612-1.781,0.08-2.43c0.694-0.649,1.782-0.612,2.43,0.08l0.783,0.837c0.648,0.693,0.612,1.781-0.08,2.43
		C267.472,255.8,267.05,255.953,266.629,255.953z M261.931,250.934c-0.459,0-0.917-0.183-1.255-0.544l-0.783-0.837
		c-0.649-0.693-0.612-1.781,0.08-2.43c0.694-0.648,1.781-0.612,2.43,0.08l0.783,0.837c0.649,0.693,0.612,1.781-0.08,2.43
		C262.773,250.78,262.352,250.934,261.931,250.934z M257.232,245.914c-0.459,0-0.917-0.183-1.256-0.545l-0.782-0.837
		c-0.648-0.693-0.611-1.781,0.082-2.43c0.693-0.647,1.78-0.612,2.43,0.082l0.782,0.837c0.648,0.693,0.611,1.781-0.082,2.43
		C258.074,245.761,257.653,245.914,257.232,245.914z M252.535,240.895c-0.458,0-0.916-0.183-1.254-0.544l-0.783-0.836
		c-0.649-0.692-0.614-1.78,0.079-2.429c0.692-0.647,1.78-0.615,2.429,0.079l0.783,0.836c0.649,0.692,0.614,1.78-0.079,2.429
		C253.379,240.74,252.957,240.895,252.535,240.895z M247.837,235.875c-0.458,0-0.916-0.183-1.254-0.544l-0.783-0.836
		c-0.649-0.692-0.614-1.78,0.079-2.429c0.69-0.648,1.779-0.615,2.429,0.079l0.783,0.836c0.649,0.692,0.614,1.78-0.079,2.429
		C248.681,235.721,248.259,235.875,247.837,235.875z M243.139,230.855c-0.459,0-0.917-0.183-1.255-0.544l-0.782-0.836
		c-0.648-0.693-0.612-1.781,0.08-2.43c0.694-0.648,1.782-0.612,2.43,0.08l0.782,0.836c0.648,0.693,0.612,1.781-0.08,2.43
		C243.981,230.702,243.56,230.855,243.139,230.855z M238.441,225.836c-0.458,0-0.916-0.183-1.254-0.544l-0.783-0.836
		c-0.649-0.692-0.614-1.78,0.079-2.429c0.69-0.647,1.779-0.615,2.429,0.079l0.783,0.836c0.649,0.692,0.614,1.78-0.079,2.429
		C239.285,225.682,238.863,225.836,238.441,225.836z M233.743,220.816c-0.458,0-0.916-0.183-1.254-0.544l-0.783-0.836
		c-0.65-0.692-0.614-1.78,0.079-2.429c0.69-0.647,1.779-0.614,2.429,0.079l0.783,0.836c0.649,0.692,0.614,1.78-0.079,2.429
		C234.587,220.662,234.165,220.816,233.743,220.816z M229.045,215.798c-0.459,0-0.917-0.183-1.256-0.545l-0.782-0.837
		c-0.648-0.693-0.611-1.781,0.082-2.43c0.694-0.647,1.78-0.612,2.43,0.082l0.782,0.837c0.648,0.693,0.611,1.781-0.082,2.43
		C229.887,215.645,229.466,215.798,229.045,215.798z M224.348,210.778c-0.459,0-0.917-0.183-1.255-0.544l-0.783-0.837
		c-0.649-0.693-0.613-1.781,0.08-2.43c0.693-0.649,1.78-0.612,2.429,0.08l0.783,0.837c0.649,0.693,0.612,1.781-0.08,2.43
		C225.19,210.625,224.769,210.778,224.348,210.778z"/>
	<path style="fill:#78B400;" d="M115.753,326.226c-0.421,0-0.842-0.153-1.174-0.464c-0.693-0.648-0.729-1.736-0.081-2.43
		l0.783-0.837c0.648-0.692,1.736-0.729,2.429-0.08c0.693,0.648,0.729,1.736,0.081,2.43l-0.783,0.837
		C116.67,326.043,116.212,326.226,115.753,326.226z M120.451,321.206c-0.42,0-0.842-0.153-1.173-0.464
		c-0.693-0.648-0.73-1.735-0.081-2.429l0.783-0.837c0.648-0.694,1.736-0.73,2.429-0.081c0.693,0.648,0.73,1.735,0.082,2.429
		l-0.783,0.837C121.369,321.023,120.911,321.206,120.451,321.206z M125.149,316.186c-0.42,0-0.842-0.153-1.173-0.464
		c-0.693-0.648-0.73-1.735-0.082-2.429l0.783-0.837c0.649-0.693,1.736-0.73,2.429-0.081c0.693,0.648,0.73,1.735,0.081,2.429
		l-0.783,0.837C126.066,316.004,125.608,316.186,125.149,316.186z M129.847,311.167c-0.421,0-0.842-0.153-1.174-0.464
		c-0.693-0.648-0.729-1.736-0.081-2.43l0.783-0.837c0.649-0.692,1.736-0.729,2.429-0.08c0.693,0.648,0.729,1.736,0.081,2.43
		l-0.783,0.837C130.764,310.984,130.306,311.167,129.847,311.167z M134.545,306.147c-0.42,0-0.842-0.153-1.173-0.464
		c-0.693-0.648-0.73-1.735-0.082-2.429l0.783-0.837c0.648-0.693,1.737-0.73,2.429-0.081c0.693,0.648,0.73,1.735,0.081,2.429
		l-0.783,0.837C135.462,305.965,135.004,306.147,134.545,306.147z M139.243,301.128c-0.421,0-0.843-0.153-1.174-0.464
		c-0.693-0.65-0.729-1.736-0.08-2.43l0.783-0.836c0.647-0.692,1.736-0.729,2.429-0.08c0.693,0.649,0.729,1.736,0.08,2.43
		l-0.783,0.836C140.16,300.945,139.702,301.128,139.243,301.128z M143.94,296.108c-0.421,0-0.843-0.154-1.175-0.465
		c-0.692-0.648-0.728-1.736-0.079-2.429l0.783-0.836c0.649-0.692,1.736-0.729,2.43-0.079c0.692,0.648,0.728,1.736,0.079,2.429
		l-0.783,0.836C144.857,295.926,144.399,296.108,143.94,296.108z M148.638,291.089c-0.421,0-0.843-0.154-1.175-0.465
		c-0.692-0.648-0.728-1.736-0.079-2.429l0.783-0.836c0.649-0.692,1.737-0.728,2.43-0.079c0.692,0.648,0.728,1.736,0.079,2.429
		l-0.783,0.836C149.555,290.906,149.097,291.089,148.638,291.089z M153.336,286.069c-0.421,0-0.843-0.153-1.174-0.464
		c-0.693-0.649-0.729-1.736-0.08-2.43l0.783-0.836c0.649-0.693,1.736-0.729,2.429-0.08c0.693,0.649,0.729,1.736,0.08,2.43
		l-0.783,0.836C154.253,285.887,153.795,286.069,153.336,286.069z M158.034,281.05c-0.421,0-0.843-0.154-1.175-0.465
		c-0.692-0.648-0.728-1.736-0.079-2.429l0.783-0.836c0.649-0.692,1.737-0.728,2.43-0.079c0.692,0.648,0.728,1.736,0.079,2.429
		l-0.783,0.836C158.951,280.867,158.493,281.05,158.034,281.05z M162.732,276.031c-0.421,0-0.842-0.153-1.174-0.464
		c-0.693-0.648-0.729-1.736-0.081-2.43l0.783-0.837c0.649-0.692,1.736-0.73,2.429-0.08c0.693,0.648,0.729,1.736,0.081,2.43
		l-0.783,0.837C163.649,275.849,163.191,276.031,162.732,276.031z M167.43,271.012c-0.42,0-0.842-0.153-1.173-0.464
		c-0.693-0.648-0.73-1.735-0.081-2.429l0.783-0.837c0.649-0.693,1.737-0.73,2.429-0.081c0.693,0.648,0.73,1.735,0.082,2.429
		l-0.783,0.837C168.348,270.829,167.89,271.012,167.43,271.012z M172.128,265.992c-0.421,0-0.842-0.153-1.174-0.464
		c-0.693-0.648-0.729-1.736-0.081-2.43l0.783-0.837c0.649-0.693,1.736-0.729,2.429-0.08c0.693,0.648,0.729,1.736,0.081,2.43
		l-0.783,0.837C173.045,265.81,172.587,265.992,172.128,265.992z M176.826,260.973c-0.421,0-0.842-0.153-1.174-0.464
		c-0.693-0.648-0.729-1.736-0.081-2.43l0.783-0.837c0.648-0.692,1.736-0.728,2.429-0.08c0.693,0.648,0.729,1.736,0.081,2.43
		l-0.783,0.837C177.743,260.79,177.285,260.973,176.826,260.973z M181.524,255.953c-0.42,0-0.842-0.153-1.173-0.464
		c-0.693-0.648-0.73-1.735-0.082-2.429l0.783-0.837c0.648-0.693,1.736-0.73,2.429-0.081c0.693,0.648,0.73,1.735,0.081,2.429
		l-0.783,0.837C182.441,255.77,181.983,255.953,181.524,255.953z M186.222,250.934c-0.421,0-0.842-0.153-1.174-0.464
		c-0.693-0.648-0.729-1.736-0.081-2.43l0.783-0.837c0.648-0.692,1.736-0.729,2.429-0.08c0.693,0.648,0.729,1.736,0.081,2.43
		l-0.783,0.837C187.139,250.751,186.681,250.934,186.222,250.934z M190.919,245.914c-0.421,0-0.842-0.153-1.174-0.464
		c-0.693-0.648-0.729-1.736-0.081-2.43l0.783-0.837c0.648-0.693,1.736-0.729,2.429-0.08c0.693,0.648,0.729,1.736,0.081,2.43
		l-0.783,0.837C191.836,245.731,191.378,245.914,190.919,245.914z M195.618,240.895c-0.421,0-0.843-0.153-1.174-0.464
		c-0.693-0.649-0.729-1.736-0.08-2.43l0.783-0.836c0.648-0.692,1.736-0.729,2.429-0.08c0.693,0.649,0.729,1.736,0.08,2.43
		l-0.783,0.836C196.535,240.712,196.077,240.895,195.618,240.895z M200.315,235.875c-0.421,0-0.843-0.153-1.174-0.464
		c-0.693-0.649-0.729-1.736-0.08-2.43l0.783-0.836c0.648-0.693,1.736-0.729,2.429-0.08c0.693,0.649,0.729,1.736,0.08,2.43
		l-0.783,0.836C201.232,235.692,200.774,235.875,200.315,235.875z M205.013,230.855c-0.421,0-0.843-0.154-1.175-0.465
		c-0.692-0.648-0.728-1.736-0.079-2.429l0.783-0.836c0.648-0.692,1.737-0.729,2.43-0.079c0.692,0.648,0.728,1.736,0.079,2.429
		l-0.783,0.836C205.93,230.673,205.472,230.855,205.013,230.855z M209.711,225.836c-0.421,0-0.843-0.153-1.174-0.464
		c-0.693-0.649-0.729-1.736-0.08-2.43l0.783-0.836c0.648-0.692,1.736-0.729,2.429-0.08c0.693,0.649,0.729,1.736,0.08,2.43
		l-0.783,0.836C210.628,225.653,210.17,225.836,209.711,225.836z M214.409,220.816c-0.421,0-0.843-0.153-1.174-0.464
		c-0.693-0.649-0.729-1.736-0.08-2.43l0.783-0.836c0.648-0.692,1.736-0.729,2.429-0.08c0.693,0.649,0.729,1.736,0.08,2.43
		l-0.783,0.836C215.326,220.634,214.868,220.816,214.409,220.816z M219.107,215.798c-0.421,0-0.842-0.153-1.174-0.464
		c-0.693-0.648-0.729-1.736-0.081-2.43l0.783-0.837c0.648-0.693,1.736-0.729,2.429-0.08c0.693,0.648,0.729,1.736,0.081,2.43
		l-0.783,0.837C220.024,215.615,219.566,215.798,219.107,215.798z M223.805,210.778c-0.421,0-0.842-0.153-1.174-0.464
		c-0.693-0.648-0.729-1.736-0.081-2.43l0.783-0.837c0.649-0.692,1.737-0.729,2.429-0.08c0.693,0.648,0.729,1.736,0.081,2.43
		l-0.783,0.837C224.722,210.596,224.264,210.778,223.805,210.778z"/>
	<g>
		<path style="fill:#D2EBEB;" d="M298.741,200.221c10.043-46.783-25.738-91.148-73.76-91.148c-47.306,0-83.749,43.373-73.762,91.148
			c9.023,43.34,52.465,69.783,52.465,84.099l0.002,15.973h42.592v-15.973C246.277,270.004,289.721,243.561,298.741,200.221z"/>
		<path style="fill:#FFFFFF;" d="M287.086,187.152c-1.468,0-2.658-1.192-2.658-2.662c0-32.777-26.669-59.444-59.447-59.444
			c-1.47,0-2.662-1.192-2.662-2.662s1.192-2.662,2.662-2.662c35.713,0,64.768,29.054,64.768,64.769
			C289.749,185.96,288.559,187.152,287.086,187.152z"/>
		<path style="fill:#969696;" d="M246.277,329.407c0,2.94-2.384,5.324-5.324,5.324h-31.945c-2.94,0-5.324-2.384-5.324-5.324v-24.681
			h42.594V329.407z"/>
		<path style="fill:#505050;" d="M238.116,339.626c-0.688,2.234-2.751,3.759-5.089,3.759h-16.093c-2.337,0-4.402-1.524-5.089-3.759
			l-1.506-4.894h29.283L238.116,339.626z"/>
		<g>
			<rect x="203.684" y="326.825" style="fill:#B4B4B4;" width="42.594" height="2.256"/>
			<rect x="203.684" y="320.044" style="fill:#B4B4B4;" width="42.594" height="2.256"/>
			<rect x="203.684" y="313.266" style="fill:#B4B4B4;" width="42.594" height="2.256"/>
		</g>
		<path style="fill:#78B400;" d="M189.598,147.664c-15.53,18.857-28.396,80.974,27.508,85.855
			c-6.654-14.864,0.223-27.954-3.992-47.697C208.898,166.077,189.598,147.664,189.598,147.664z"/>
		<path style="fill:#78B400;" d="M238.403,147.664c5.732,8.019,9.317,35.053-12.201,45.923
			C219.324,184.268,220.656,158.092,238.403,147.664z"/>
		<path style="fill:#78B400;" d="M267.021,181.384c-16.417,1.331-42.04,20.188-42.04,63.003
			C265.024,235.515,267.021,181.384,267.021,181.384z"/>
		<path style="fill:#469600;" d="M190.485,163.858c0,0,0.009,1.641,0.026,4.51c0.101,1.431,0.209,3.167,0.403,5.149
			c0.292,1.975,0.522,4.214,1.06,6.613c0.434,2.414,1.123,4.985,1.87,7.69c0.781,2.699,1.74,5.501,2.803,8.372
			c0.573,1.421,1.156,2.865,1.746,4.326c0.645,1.438,1.298,2.892,1.957,4.357c1.391,2.898,2.874,5.805,4.463,8.656
			c3.188,5.695,6.76,11.168,10.401,16.068c1.872,2.471,3.559,4.908,4.974,7.502c1.402,2.524,2.43,5.06,3.294,7.426
			c1.627,4.775,2.31,8.954,2.555,11.892c0.136,1.471,0.166,2.637,0.163,3.442c0.006,0.792-0.028,1.269-0.028,1.269l-2.655-0.21
			c0,0,0.035-0.34,0.044-1.085c0.013-0.732,0.005-1.824-0.096-3.214c-0.182-2.775-0.759-6.761-2.227-11.338
			c-0.783-2.265-1.717-4.702-3.012-7.132c-0.645-1.223-1.324-2.399-2.121-3.64c-0.834-1.213-1.684-2.452-2.549-3.715
			c-3.553-5.074-7.005-10.711-10.06-16.554c-1.523-2.925-2.936-5.901-4.256-8.864c-0.621-1.498-1.239-2.983-1.847-4.453
			c-0.553-1.489-1.099-2.96-1.635-4.408c-0.99-2.925-1.873-5.774-2.583-8.514c-0.674-2.746-1.293-5.349-1.661-7.788
			c-0.471-2.424-0.638-4.683-0.874-6.67c-0.137-1.998-0.196-3.745-0.256-5.177C190.447,165.497,190.485,163.858,190.485,163.858z"/>
		<path style="fill:#469600;" d="M252.822,202.016c0,0-0.941,1.221-2.736,3.249c-0.89,1.016-1.97,2.249-3.21,3.663
			c-1.226,1.424-2.619,3.015-4.059,4.814c-1.452,1.787-2.965,3.77-4.434,5.949c-1.476,2.172-2.979,4.5-4.31,7.023
			c-0.675,1.26-1.373,2.529-1.938,3.886c-0.602,1.336-1.236,2.676-1.707,4.098c-1.066,2.783-1.924,5.699-2.585,8.648
			c-0.698,2.947-1.034,5.957-1.344,8.916c-0.096,2.976-0.221,5.888-0.142,8.806c0.014,5.785,0.027,11.184,0.038,15.811
			c-0.052,9.256-0.086,15.426-0.086,15.426h-2.662c0,0-0.034-6.17-0.085-15.426c0.011-4.628,0.024-10.026,0.037-15.811
			c-0.024-2.869,0.159-5.928,0.325-9.021c0.379-3.075,0.793-6.195,1.578-9.248c0.741-3.052,1.69-6.064,2.917-8.899
			c0.542-1.448,1.242-2.811,1.914-4.168c0.634-1.372,1.398-2.653,2.136-3.921c1.475-2.531,3.056-4.885,4.699-6.998
			c1.615-2.133,3.257-4.056,4.818-5.777c3.108-3.465,5.944-6.095,7.861-7.992C251.786,203.165,252.822,202.016,252.822,202.016z"/>
		<rect x="205.514" y="284.319" style="fill:#783200;" width="38.656" height="12.645"/>
		<rect x="201.688" y="296.964" style="fill:#B4B4B4;" width="46.587" height="10.648"/>
		<path style="opacity:0.2;fill:#FFFFFF;" d="M233.028,343.386c2.337,0,4.401-1.526,5.09-3.76l1.505-4.892h1.33
			c2.941,0,5.324-2.386,5.324-5.327v-0.326v-2.256V322.3v-2.256v-4.522v-2.256v-5.653h1.997v-10.648h-1.997v-12.645
			c0-14.315,43.443-40.759,52.464-84.099c0.05-0.23,0.105-0.457,0.151-0.69c0.146-0.73,0.27-1.47,0.395-2.211
			c0.13-0.756,0.252-1.516,0.358-2.281c0.084-0.584,0.156-1.17,0.228-1.761c0.108-0.956,0.196-1.917,0.272-2.884
			c0.039-0.485,0.084-0.967,0.112-1.456c0.086-1.473,0.141-2.953,0.141-4.448c0-41.652-33.765-75.417-75.416-75.417v234.313H233.028
			z"/>
	</g>
	<g>
		<path style="fill:#006482;" d="M372.138,328.167c0,19.032-15.431,34.463-34.464,34.463c-19.034,0-34.463-15.431-34.463-34.463
			c0-19.033,15.429-34.464,34.463-34.464C356.707,293.703,372.138,309.134,372.138,328.167z"/>
		<g>
			<rect x="331.938" y="342.96" style="fill:#FFFFFF;" width="6.314" height="5.243"/>
			<rect x="330.144" y="346.94" style="fill:#FFFFFF;" width="9.904" height="2.528"/>
			<g>
				<path style="fill:#FFFFFF;" d="M356.26,315.039c0,3.133-2.538,5.674-5.671,5.674c-3.136,0-5.674-2.541-5.674-5.674
					c0-3.133,2.538-5.673,5.674-5.673C353.722,309.366,356.26,311.906,356.26,315.039z"/>
			</g>
			<g>
				<path style="fill:#FFFFFF;" d="M350.589,308.436c0.47,0,0.929,0.05,1.373,0.145c-0.002-0.001-0.002-0.001-0.002-0.001
					c-0.74-1.216-1.371-3.8-1.371-5.056c0,1.256-0.636,3.84-1.375,5.056c0,0,0,0-0.001,0.001
					C349.656,308.486,350.114,308.436,350.589,308.436z"/>
			</g>
			<g>
				<path style="fill:#FFFFFF;" d="M357.188,315.039c0,0.47-0.048,0.931-0.145,1.374c0.003,0,0.003,0,0.004,0
					c1.214-0.741,3.801-1.374,5.054-1.374c-1.253,0-3.84-0.634-5.054-1.374c-0.001,0-0.001,0-0.004-0.002
					C357.141,314.108,357.188,314.569,357.188,315.039z"/>
			</g>
			<path style="fill:#FFFFFF;" d="M350.589,321.641c-0.475,0-0.933-0.051-1.376-0.146c0.001,0.003,0.001,0.003,0.001,0.004
				c0.739,1.214,1.375,3.799,1.375,5.054c0-1.255,0.631-3.84,1.371-5.054c0-0.001,0-0.001,0.002-0.004
				C351.518,321.59,351.059,321.641,350.589,321.641z"/>
			<g>
				<path style="fill:#FFFFFF;" d="M343.986,315.039c0-0.47,0.05-0.931,0.144-1.376c-0.001,0.002-0.001,0.002-0.001,0.002
					c-1.216,0.74-3.803,1.374-5.058,1.374c1.255,0,3.842,0.633,5.058,1.374c0,0,0,0,0.001,0
					C344.036,315.97,343.986,315.509,343.986,315.039z"/>
			</g>
			<g>
				<path style="fill:#FFFFFF;" d="M345.918,310.37c0.334-0.333,0.694-0.622,1.074-0.87h-0.002
					c-1.381-0.336-3.656-1.717-4.544-2.603c0.888,0.887,2.267,3.164,2.602,4.546c0,0,0,0,0,0.002
					C345.295,311.065,345.585,310.703,345.918,310.37z"/>
			</g>
			<g>
				<path style="fill:#FFFFFF;" d="M355.255,310.37c0.335,0.333,0.625,0.694,0.871,1.074c0-0.002,0-0.002,0-0.002
					c0.333-1.382,1.715-3.659,2.601-4.546c-0.887,0.887-3.162,2.268-4.544,2.603h-0.003
					C354.561,309.748,354.923,310.037,355.255,310.37z"/>
			</g>
			<g>
				<path style="fill:#FFFFFF;" d="M355.255,319.707c-0.332,0.334-0.693,0.622-1.074,0.871h0.003
					c1.382,0.335,3.657,1.714,4.544,2.603c-0.887-0.889-2.268-3.162-2.601-4.548l0,0C355.88,319.014,355.59,319.374,355.255,319.707
					z"/>
			</g>
			<path style="fill:#FFFFFF;" d="M345.918,319.707c-0.333-0.333-0.623-0.693-0.87-1.074l0,0c-0.335,1.386-1.714,3.659-2.602,4.548
				c0.888-0.889,3.162-2.268,4.544-2.603h0.002C346.612,320.329,346.252,320.041,345.918,319.707z"/>
			<g>
				<path style="fill:#FFFFFF;" d="M344.751,320.038l-0.193-0.096c-0.016,0.033-0.033,0.064-0.048,0.096H344.751z"/>
				<path style="fill:#FFFFFF;" d="M345.918,319.707c-0.333-0.333-0.623-0.693-0.87-1.074l0,0c-0.087,0.358-0.244,0.775-0.443,1.213
					l0.906,0.192h0.059l-0.043,0.005l0.338,0.071l-0.005-0.076h0.442C346.174,319.93,346.04,319.828,345.918,319.707z"/>
				<path style="fill:#FFFFFF;" d="M345.901,320.604l-0.607-0.3l0.073,0.92c0.188-0.097,0.378-0.184,0.563-0.264L345.901,320.604z"
					/>
				<path style="fill:#FFFFFF;" d="M351.962,321.495c-0.316,0.068-0.643,0.105-0.975,0.125l0.201,1.722
					c0.222-0.713,0.489-1.38,0.772-1.843C351.96,321.498,351.96,321.498,351.962,321.495z"/>
				<path style="fill:#FFFFFF;" d="M350.852,324.615c0.045-0.194,0.089-0.39,0.141-0.584h-0.811c0.052,0.194,0.099,0.39,0.14,0.584
					H350.852z"/>
				<path style="fill:#FFFFFF;" d="M352.429,321.995c-0.432,0.792-0.818,2.085-1.025,3.187l0.365,3.131h-5.265l-0.29-3.697h3.438
					c-0.044-0.196-0.094-0.39-0.147-0.584h-3.334l-0.186-2.386c-0.184,0.085-0.372,0.18-0.561,0.278l0.163,2.108h-4.808
					l-0.156-3.993h3.161c0.274-0.533,0.5-1.057,0.612-1.486v-0.261h-26.56l-2.916,24.911h40.355l-2.503-21.376L352.429,321.995z
					 M351.804,328.897v-0.284l0.468,3.984h-5.434l-0.291-3.7H351.804z M335.387,320.038h4.948l-0.297,0.013l0.155,3.98h-4.807
					V320.038z M335.387,324.615h4.83l0.146,3.697h-4.976V324.615z M335.387,328.897h4.997l0.143,3.7h-5.141V328.897z
					 M335.387,333.18h5.164l0.145,3.699h-5.309V333.18z M324.622,320.038h4.946l-0.155,3.993h-4.807l0.308-3.968L324.622,320.038z
					 M319.39,320.038h4.941l-0.311,3.993h-5.101L319.39,320.038z M318.888,324.321v0.294h5.088l-0.289,3.697h-5.268L318.888,324.321
					z M318.384,328.607v0.289h5.257l-0.287,3.7h-5.434L318.384,328.607z M322.95,341.453h-6.069l0.502-4.28v0.29h5.59l-0.309,3.968
					L322.95,341.453z M317.418,336.879l0.467-3.99v0.291h5.422l-0.288,3.699H317.418z M323.246,341.453l0.31-3.99h5.331l-0.154,3.98
					l0.286,0.011H323.246z M328.911,336.879h-5.309l0.29-3.699h5.163L328.911,336.879z M329.078,332.597h-5.142l0.288-3.7h4.996
					L329.078,332.597z M324.27,328.313l0.289-3.697h4.829l-0.145,3.697H324.27z M334.805,341.453h-5.487l0.154-3.99h5.333V341.453z
					 M334.805,336.879h-5.31l0.145-3.699h5.165V336.879z M334.805,332.597h-5.143l0.145-3.7h4.998V332.597z M334.805,328.313h-4.976
					l0.144-3.697h4.832V328.313z M334.805,324.031h-4.807l0.153-3.98l-0.296-0.013h4.949V324.031z M335.387,341.453v-3.99h5.333
					l0.154,3.99H335.387z M340.8,324.615h4.832l0.288,3.697h-4.976L340.8,324.615z M340.968,328.897h4.998l0.288,3.7h-5.141
					L340.968,328.897z M346.299,333.18l0.291,3.699h-5.311l-0.145-3.699H346.299z M341.17,341.453l0.287-0.011l-0.153-3.98h5.331
					l0.31,3.99H341.17z M346.884,333.18h5.423v-0.289l0.464,3.988h-5.599L346.884,333.18z M352.808,337.179l0.5,4.274h-6.067
					l0.287-0.022l-0.31-3.968h5.591V337.179z"/>
			</g>
		</g>
	</g>
	<g>
		<path style="fill:#006482;" d="M405.216,152.837c0,19.032-15.432,34.462-34.465,34.462c-19.032,0-34.463-15.43-34.463-34.462
			c0-19.034,15.431-34.466,34.463-34.466C389.784,118.372,405.216,133.804,405.216,152.837z"/>
		<g>
			<path style="fill:#FFFFFF;" d="M370.751,138.429c-7.956,0-14.406,6.452-14.406,14.408c0,7.956,6.45,14.405,14.406,14.405
				c7.955,0,14.406-6.45,14.406-14.405C385.157,144.881,378.706,138.429,370.751,138.429z M370.753,162.944
				c-5.575,0-10.107-4.534-10.107-10.106c0-5.575,4.532-10.108,10.107-10.108c5.57,0,10.107,4.533,10.107,10.108
				C380.859,158.41,376.323,162.944,370.753,162.944z"/>
			<path style="fill:#FFFFFF;" d="M370.753,143.345c-5.235,0-9.493,4.257-9.493,9.492c0,5.233,4.258,9.491,9.493,9.491
				c5.232,0,9.491-4.258,9.491-9.491C380.244,147.602,375.985,143.345,370.753,143.345z M366.29,154.376
				c-0.853,0-1.542-0.69-1.542-1.539c0-0.851,0.69-1.54,1.542-1.54c0.849,0,1.538,0.689,1.538,1.54
				C367.828,153.686,367.139,154.376,366.29,154.376z M375.067,154.376c-0.852,0-1.539-0.69-1.539-1.539
				c0-0.851,0.688-1.54,1.539-1.54c0.851,0,1.54,0.689,1.54,1.54C376.607,153.686,375.918,154.376,375.067,154.376z"/>
			<g>
				<path style="fill:#FFFFFF;" d="M370.751,136.071c1.199,0,2.363,0.128,3.491,0.368c-0.002-0.001-0.002-0.001-0.002-0.001
					c-1.881-3.089-3.489-9.652-3.489-12.837c0,3.185-1.607,9.747-3.487,12.837c0,0,0,0-0.002,0.001
					C368.388,136.199,369.554,136.071,370.751,136.071z"/>
				<path style="fill:#FFFFFF;" d="M387.515,152.837c0,1.196-0.126,2.363-0.363,3.489v-0.001c3.089-1.881,9.651-3.488,12.836-3.488
					c-3.185,0-9.747-1.608-12.835-3.491h-0.001C387.389,150.472,387.515,151.64,387.515,152.837z"/>
				<path style="fill:#FFFFFF;" d="M370.751,169.601c-1.197,0-2.363-0.128-3.489-0.367c0.002,0.001,0.002,0.002,0.002,0.002
					c1.881,3.088,3.487,9.651,3.487,12.837c0-3.186,1.608-9.749,3.489-12.837c0,0,0-0.001,0.002-0.002
					C373.114,169.473,371.95,169.601,370.751,169.601z"/>
				<path style="fill:#FFFFFF;" d="M353.988,152.837c0-1.197,0.127-2.366,0.365-3.491c0,0,0,0-0.003,0
					c-3.086,1.883-9.648,3.491-12.837,3.491c3.188,0,9.751,1.607,12.837,3.488c0.003,0,0.003,0.001,0.003,0.001
					C354.115,155.201,353.988,154.033,353.988,152.837z"/>
				<path style="fill:#FFFFFF;" d="M358.898,140.982c0.847-0.847,1.762-1.581,2.726-2.208l0,0
					c-3.516-0.855-9.292-4.358-11.545-6.611c2.253,2.252,5.756,8.03,6.608,11.545l0,0
					C357.316,142.743,358.05,141.828,358.898,140.982z"/>
				<path style="fill:#FFFFFF;" d="M382.605,140.982c0.848,0.846,1.581,1.761,2.21,2.727l0,0c0.854-3.516,4.355-9.293,6.609-11.545
					c-2.254,2.252-8.03,5.757-11.545,6.611l0,0C380.843,139.401,381.757,140.135,382.605,140.982z"/>
				<path style="fill:#FFFFFF;" d="M382.605,164.69c-0.849,0.847-1.763,1.583-2.726,2.21l0,0c3.515,0.852,9.291,4.356,11.545,6.609
					c-2.254-2.252-5.757-8.03-6.609-11.544v-0.001C384.186,162.928,383.453,163.843,382.605,164.69z"/>
				<path style="fill:#FFFFFF;" d="M358.898,164.69c-0.849-0.847-1.582-1.762-2.211-2.727v0.001
					c-0.853,3.515-4.355,9.292-6.608,11.544c2.253-2.252,8.029-5.757,11.545-6.609l0,0
					C360.66,166.273,359.745,165.538,358.898,164.69z"/>
			</g>
		</g>
	</g>
	<g>
		<path style="fill:#006482;" d="M105.35,244.452c0,19.033-15.431,34.464-34.465,34.464c-19.033,0-34.463-15.431-34.463-34.464
			c0-19.032,15.431-34.464,34.463-34.464C89.919,209.988,105.35,225.42,105.35,244.452z"/>
		<g>
			<rect x="61.543" y="266.906" style="fill:#FFFFFF;" width="8.019" height="2.188"/>
			<path style="fill:#FFFFFF;" d="M65.551,237.518c-1.563,0-2.83,1.267-2.83,2.83c0,1.561,1.267,2.83,2.83,2.83
				c1.564,0,2.83-1.269,2.83-2.83C68.381,238.784,67.115,237.518,65.551,237.518z M65.551,242.357c-1.108,0-2.009-0.901-2.009-2.01
				c0-1.11,0.901-2.01,2.009-2.01c1.109,0,2.011,0.899,2.011,2.01C67.562,241.456,66.661,242.357,65.551,242.357z"/>
			<g>
				<path style="fill:#FFFFFF;" d="M66.071,243.125c0.165-0.031,0.323-0.079,0.477-0.138
					C66.394,243.046,66.235,243.093,66.071,243.125z"/>
				<path style="fill:#FFFFFF;" d="M64.554,242.987L64.554,242.987c0.154,0.059,0.313,0.106,0.478,0.138
					C64.867,243.093,64.708,243.046,64.554,242.987z"/>
				<path style="fill:#FFFFFF;" d="M65.551,243.868c-0.358,0-0.697-0.069-1.023-0.169L63.62,268h3.861l-0.905-24.301
					C66.251,243.799,65.911,243.868,65.551,243.868z"/>
			</g>
			<g>
				<path style="fill:#FFFFFF;" d="M65.551,237.518c-0.203,0-0.401,0.023-0.592,0.065C65.15,237.54,65.348,237.518,65.551,237.518z"
					/>
				<path style="fill:#FFFFFF;" d="M66.126,237.577c-0.185-0.038-0.378-0.06-0.574-0.06
					C65.748,237.518,65.94,237.539,66.126,237.577z"/>
				<path style="fill:#FFFFFF;" d="M64.407,237.764L64.407,237.764c0.171-0.076,0.352-0.135,0.538-0.178
					C64.758,237.627,64.579,237.688,64.407,237.764z"/>
				<path style="fill:#FFFFFF;" d="M66.145,237.583c0.179,0.038,0.352,0.092,0.516,0.162l0,0
					C66.497,237.675,66.324,237.619,66.145,237.583z"/>
				<path style="fill:#FFFFFF;" d="M64.076,236.352c0.049,0.257,0.102,0.501,0.158,0.735c0.408-0.164,0.851-0.261,1.317-0.261
					c0.453,0,0.884,0.093,1.283,0.25c0.055-0.229,0.108-0.468,0.158-0.719c0.123-0.598,0.229-1.247,0.309-1.933
					c0.089-0.686,0.14-1.409,0.133-2.157c-0.008-0.749-0.09-1.521-0.186-2.308c-0.095-0.786-0.184-1.585-0.244-2.384
					c-0.121-1.596-0.227-3.193-0.376-4.691c-0.131-1.497-0.277-2.895-0.401-4.094c-0.255-2.395-0.469-3.992-0.469-3.992h-0.361
					c0,0-0.22,1.596-0.485,3.99c-0.126,1.197-0.281,2.594-0.418,4.092c-0.155,1.496-0.266,3.092-0.393,4.689
					c-0.065,0.799-0.157,1.597-0.255,2.382c-0.099,0.786-0.183,1.559-0.196,2.309c-0.008,0.747,0.039,1.472,0.126,2.157
					C63.852,235.105,63.956,235.753,64.076,236.352z"/>
			</g>
			<g>
				<path style="fill:#FFFFFF;" d="M77.369,245.476c-2.425-1.66-3.223-2.619-5.778-3.692c-0.881-0.383-1.779-0.706-2.567-0.939
					c-0.13,0.907-0.602,1.695-1.287,2.242c0.584,0.555,1.314,1.174,2.091,1.75c2.35,1.785,16.465,7.901,17.785,8.442l0.182-0.314
					C85.781,251.408,82.588,249.064,77.369,245.476z"/>
			</g>
			<g>
				<path style="fill:#FFFFFF;" d="M63.12,241.773c0.094,0.159,0.201,0.309,0.324,0.446
					C63.323,242.081,63.213,241.932,63.12,241.773z"/>
				<path style="fill:#FFFFFF;" d="M63.874,242.614c-0.152-0.112-0.292-0.24-0.417-0.379
					C63.583,242.375,63.722,242.502,63.874,242.614z"/>
				<path style="fill:#FFFFFF;" d="M62.755,240.669c0.045,0.395,0.168,0.764,0.359,1.093
					C62.926,241.435,62.8,241.064,62.755,240.669z"/>
				<path style="fill:#FFFFFF;" d="M62.082,240.852c-0.231,0.068-0.47,0.143-0.717,0.228c-0.578,0.195-1.192,0.428-1.827,0.703
					c-0.637,0.268-1.287,0.585-1.933,0.968c-0.643,0.382-1.271,0.841-1.903,1.318c-0.632,0.478-1.279,0.953-1.938,1.406
					c-1.32,0.909-2.65,1.799-3.87,2.68c-1.229,0.865-2.364,1.693-3.337,2.401c-1.946,1.422-3.22,2.408-3.22,2.408l0.181,0.314
					c0,0,1.491-0.612,3.696-1.583c1.099-0.492,2.387-1.061,3.749-1.692c1.372-0.617,2.81-1.322,4.254-2.012
					c0.723-0.347,1.459-0.667,2.188-0.976c0.729-0.309,1.441-0.623,2.095-0.989c0.652-0.368,1.253-0.771,1.804-1.19
					c0.555-0.411,1.064-0.826,1.521-1.23c0.198-0.173,0.382-0.343,0.559-0.509C62.691,242.553,62.214,241.762,62.082,240.852z"/>
			</g>
			<g>
				<rect x="77.794" y="259.507" style="fill:#FFFFFF;" width="5.795" height="1.58"/>
				<path style="fill:#FFFFFF;" d="M80.692,238.27c-1.128,0-2.044,0.917-2.044,2.046s0.916,2.044,2.044,2.044
					c1.13,0,2.045-0.915,2.045-2.044S81.822,238.27,80.692,238.27z M80.692,241.768c-0.801,0-1.452-0.651-1.452-1.452
					c0-0.803,0.651-1.451,1.452-1.451c0.802,0,1.453,0.648,1.453,1.451C82.145,241.116,81.494,241.768,80.692,241.768z"/>
				<g>
					<path style="fill:#FFFFFF;" d="M81.068,242.322c0.118-0.023,0.233-0.058,0.344-0.101
						C81.301,242.265,81.186,242.298,81.068,242.322z"/>
					<path style="fill:#FFFFFF;" d="M79.971,242.222L79.971,242.222c0.111,0.043,0.226,0.077,0.345,0.101
						C80.198,242.298,80.082,242.265,79.971,242.222z"/>
					<path style="fill:#FFFFFF;" d="M80.692,242.86c-0.258,0-0.503-0.051-0.74-0.124l-0.656,17.561h2.791l-0.654-17.561
						C81.196,242.809,80.952,242.86,80.692,242.86z"/>
				</g>
				<g>
					<path style="fill:#FFFFFF;" d="M80.692,238.27c-0.147,0-0.291,0.018-0.428,0.048C80.401,238.287,80.545,238.27,80.692,238.27z"
						/>
					<path style="fill:#FFFFFF;" d="M81.106,238.314c-0.133-0.028-0.272-0.044-0.414-0.044
						C80.834,238.27,80.973,238.285,81.106,238.314z"/>
					<path style="fill:#FFFFFF;" d="M79.865,238.447L79.865,238.447c0.123-0.054,0.254-0.097,0.389-0.127
						C80.118,238.351,79.988,238.394,79.865,238.447z"/>
					<path style="fill:#FFFFFF;" d="M81.121,238.317c0.128,0.027,0.254,0.066,0.373,0.117l0,0
						C81.374,238.384,81.249,238.345,81.121,238.317z"/>
					<path style="fill:#FFFFFF;" d="M79.626,237.428c0.035,0.186,0.073,0.362,0.114,0.532c0.295-0.12,0.615-0.19,0.952-0.19
						c0.327,0,0.639,0.068,0.926,0.182c0.041-0.167,0.079-0.339,0.114-0.52c0.089-0.433,0.165-0.9,0.224-1.396
						c0.063-0.496,0.101-1.019,0.096-1.559c-0.005-0.542-0.066-1.101-0.134-1.668c-0.069-0.567-0.132-1.146-0.177-1.723
						c-0.088-1.153-0.162-2.309-0.271-3.39c-0.094-1.082-0.201-2.092-0.29-2.958c-0.185-1.73-0.338-2.884-0.338-2.884H80.58
						c0,0-0.16,1.152-0.351,2.883c-0.09,0.865-0.204,1.874-0.302,2.956c-0.111,1.081-0.191,2.234-0.284,3.388
						c-0.047,0.577-0.114,1.154-0.185,1.722c-0.071,0.568-0.131,1.127-0.142,1.668c-0.006,0.541,0.028,1.064,0.092,1.56
						C79.464,236.526,79.538,236.996,79.626,237.428z"/>
				</g>
				<g>
					<path style="fill:#FFFFFF;" d="M82.213,241.67c-0.089,0.1-0.189,0.192-0.297,0.274C82.024,241.862,82.123,241.77,82.213,241.67
						z"/>
					<path style="fill:#FFFFFF;" d="M82.457,241.33c0.138-0.237,0.225-0.504,0.255-0.789
						C82.682,240.826,82.593,241.094,82.457,241.33z"/>
					<path style="fill:#FFFFFF;" d="M82.221,241.66c0.088-0.1,0.166-0.208,0.233-0.323C82.387,241.452,82.309,241.561,82.221,241.66
						z"/>
					<path style="fill:#FFFFFF;" d="M94.437,247.692c-0.703-0.512-1.523-1.111-2.412-1.735c-0.881-0.636-1.841-1.28-2.795-1.936
						c-0.478-0.328-0.944-0.672-1.402-1.018c-0.456-0.345-0.909-0.676-1.374-0.952c-0.466-0.275-0.937-0.505-1.398-0.699
						c-0.458-0.198-0.9-0.368-1.319-0.508c-0.185-0.063-0.364-0.119-0.536-0.169c-0.094,0.654-0.435,1.224-0.93,1.619
						c0.13,0.123,0.266,0.248,0.412,0.374c0.331,0.294,0.699,0.594,1.1,0.89c0.397,0.304,0.833,0.596,1.303,0.861
						c0.472,0.264,0.987,0.491,1.514,0.715c0.527,0.223,1.058,0.455,1.58,0.704c1.045,0.497,2.083,1.008,3.076,1.455
						c0.985,0.454,1.913,0.866,2.708,1.222c1.592,0.701,2.67,1.144,2.67,1.144l0.131-0.228
						C96.764,249.432,95.842,248.72,94.437,247.692z"/>
				</g>
				<g>
					<path style="fill:#FFFFFF;" d="M78.935,241.345c0.067,0.116,0.146,0.223,0.234,0.323
						C79.081,241.567,79.002,241.461,78.935,241.345z"/>
					<path style="fill:#FFFFFF;" d="M79.479,241.953c-0.109-0.081-0.21-0.173-0.302-0.275
						C79.27,241.78,79.37,241.872,79.479,241.953z"/>
					<path style="fill:#FFFFFF;" d="M78.671,240.548c0.033,0.285,0.122,0.552,0.26,0.79
						C78.794,241.101,78.704,240.833,78.671,240.548z"/>
				</g>
			</g>
			<path style="fill:#FFFFFF;" d="M77.369,245.476c-2.425-1.66-3.223-2.619-5.778-3.692c-0.881-0.383-1.779-0.706-2.567-0.939
				c-0.13,0.907-0.602,1.695-1.287,2.242c0.584,0.555,1.314,1.174,2.091,1.75c2.35,1.785,16.465,7.901,17.785,8.442l0.182-0.314
				C85.781,251.408,82.588,249.064,77.369,245.476z"/>
			<g>
				<path style="fill:#FFFFFF;" d="M73.223,245.839c0.522-0.249,1.055-0.481,1.581-0.704c0.437-0.186,0.859-0.38,1.262-0.588
					c-0.862-0.64-1.535-1.169-2.327-1.664c-0.056,0.042-0.11,0.08-0.165,0.121c-0.456,0.346-0.924,0.689-1.401,1.018
					c-0.592,0.407-1.18,0.809-1.758,1.207c0.482,0.297,1.132,0.65,1.897,1.046C72.616,246.128,72.917,245.985,73.223,245.839z"/>
				<path style="fill:#FFFFFF;" d="M75.947,243.594c0.24,0.182,0.498,0.374,0.775,0.576c0.317-0.195,0.62-0.398,0.898-0.611
					c0.401-0.296,0.77-0.596,1.1-0.89c0.143-0.124,0.276-0.246,0.403-0.366c-0.498-0.395-0.843-0.966-0.939-1.623
					c-0.167,0.05-0.34,0.104-0.519,0.165c-0.418,0.14-0.861,0.31-1.32,0.508c-0.461,0.194-0.93,0.424-1.396,0.699
					c-0.205,0.121-0.405,0.258-0.607,0.396C74.892,242.806,75.394,243.18,75.947,243.594z"/>
				<path style="fill:#FFFFFF;" d="M69.804,245.658c-0.141,0.099-0.29,0.199-0.426,0.299c-0.888,0.624-1.709,1.224-2.412,1.735
					c-1.406,1.027-2.327,1.739-2.327,1.739l0.131,0.228c0,0,1.077-0.442,2.669-1.144c0.794-0.355,1.723-0.768,2.708-1.222
					c0.453-0.206,0.918-0.424,1.386-0.647C70.822,246.27,70.229,245.934,69.804,245.658z"/>
			</g>
		</g>
	</g>
	<g>
		<path style="fill:#78B400;" d="M146.792,328.167c0,19.032-15.432,34.463-34.465,34.463c-19.032,0-34.463-15.431-34.463-34.463
			c0-19.033,15.431-34.464,34.463-34.464C131.36,293.703,146.792,309.134,146.792,328.167z"/>
		<g>
			<path style="fill:#FFFFFF;" d="M110.269,353.225c-6.528-7.984-9.634-15.504-8.984-21.746c0.499-4.775,2.994-7.704,5-9.318
				l1.106,1.372c-1.746,1.407-3.917,3.956-4.352,8.128c-0.601,5.763,2.371,12.835,8.596,20.45L110.269,353.225z"/>
			<polygon style="fill:#FFFFFF;" points="106.721,324.454 107.343,323.95 107.9,324.638 108.48,324.168 107.922,323.48 
				108.543,322.977 109.099,323.666 114.213,319.523 111.563,316.257 106.453,320.398 107.01,321.089 106.387,321.593 
				105.831,320.904 105.254,321.37 105.812,322.061 105.189,322.565 104.63,321.876 104.031,322.363 106.678,325.632 
				107.281,325.144 			"/>
			
				<rect x="119.402" y="301.762" transform="matrix(0.7768 -0.6297 0.6297 0.7768 -169.6784 145.2959)" style="fill:#FFFFFF;" width="1.46" height="20.509"/>
			
				<rect x="119.402" y="303.091" transform="matrix(0.7769 -0.6296 0.6296 0.7769 -169.6486 145.2425)" style="fill:#FFFFFF;" width="1.459" height="17.852"/>
			<g>
				<path style="fill:#FFFFFF;" d="M124.408,305.096c0.221-0.18,0.349-0.43,0.376-0.692c0.027-0.261-0.045-0.534-0.223-0.753
					l-0.136-0.168c-0.081-0.099-0.18-0.178-0.29-0.242c-0.012-0.005-0.021-0.011-0.032-0.02c-0.106-0.054-0.223-0.091-0.344-0.106
					c-0.019-0.002-0.035-0.005-0.053-0.005c-0.098-0.008-0.196,0.006-0.291,0.026c-0.034,0.006-0.068,0.006-0.101,0.017
					c-0.123,0.038-0.236,0.095-0.338,0.178l-0.164,0.134l-2.269,1.84l1.433,1.764L124.408,305.096z"/>
				<polygon style="fill:#FFFFFF;" points="121.414,307.525 119.98,305.761 117.312,307.927 118.744,309.69 121.414,307.526 				"/>
			</g>
			<g>
				<path style="fill:#FFFFFF;" d="M129.36,310.86c0.04-0.049,0.089-0.089,0.117-0.143c0.047-0.085,0.067-0.183,0.086-0.277
					c0.024-0.118,0.026-0.235,0.009-0.354c-0.005-0.048,0-0.098-0.012-0.143c-0.038-0.129-0.101-0.252-0.189-0.361l-0.134-0.167
					c-0.002-0.004-0.003-0.004-0.004-0.004c-0.08-0.097-0.176-0.172-0.279-0.23c-0.018-0.011-0.037-0.023-0.057-0.033
					c-0.1-0.051-0.207-0.081-0.315-0.097c-0.025-0.004-0.051-0.006-0.077-0.009c-0.082-0.005-0.165,0.007-0.248,0.023
					c-0.043,0.008-0.087,0.008-0.129,0.021c-0.121,0.038-0.237,0.095-0.34,0.178l-1.934,1.566l-0.501,0.405l1.432,1.766l1.041-0.843
					l1.395-1.128C129.278,310.981,129.314,310.918,129.36,310.86z"/>
				<polygon style="fill:#FFFFFF;" points="126.222,313.457 124.79,311.692 124.788,311.692 122.12,313.853 123.552,315.621 
					126.222,313.457 				"/>
			</g>
			<path style="fill:#FFFFFF;" d="M119.979,329.158c-9.2,0.915-12.561,12.248-10.5,19.504c0.001,0.007,0.003,0.01,0.006,0.018
				c0.013-0.514,0.051-1.052,0.133-1.625c0.221-1.511,0.684-3.215,1.419-4.936c0.738-1.719,1.752-3.469,3.096-4.959
				c0.672-0.744,1.423-1.424,2.259-1.961c0.203-0.124,0.43-0.279,0.637-0.382c0.207-0.112,0.414-0.225,0.641-0.326
				c0.44-0.214,0.882-0.377,1.324-0.529c1.781-0.582,3.543-0.656,5.002-0.504c1.465,0.149,2.643,0.5,3.441,0.788
				c0.802,0.293,1.228,0.525,1.228,0.525s-0.44-0.208-1.251-0.451c-0.811-0.24-1.998-0.521-3.439-0.585
				c-1.436-0.068-3.134,0.107-4.79,0.756c-0.41,0.167-0.828,0.35-1.217,0.568c-0.196,0.101-0.397,0.225-0.598,0.351
				c-0.211,0.12-0.368,0.249-0.567,0.382c-0.744,0.54-1.408,1.211-1.996,1.941c-1.178,1.465-2.044,3.173-2.646,4.831
				c-0.603,1.659-0.944,3.283-1.063,4.664c-0.056,0.61-0.063,1.17-0.038,1.668c1.118-3.906,3.294-6.451,8.178-5.994
				c10.287,0.951,14.401-10.434,14.401-10.434C131.063,332.839,125.266,328.639,119.979,329.158z"/>
			<path style="fill:#FFFFFF;" d="M105.823,350.128c-0.291-0.149-0.719-0.33-1.221-0.56c-0.507-0.222-1.094-0.487-1.74-0.706
				c-0.318-0.129-0.661-0.213-0.999-0.322c-0.343-0.092-0.692-0.182-1.048-0.235c-0.352-0.067-0.71-0.112-1.061-0.128
				c-0.353-0.02-0.698-0.018-1.033,0.003c-0.332,0.04-0.661,0.054-0.962,0.127c-0.306,0.057-0.592,0.125-0.851,0.208
				c-0.266,0.069-0.5,0.16-0.711,0.233c-0.215,0.069-0.395,0.148-0.541,0.217c-0.297,0.133-0.472,0.202-0.472,0.202
				s0.148-0.111,0.417-0.301c0.134-0.099,0.301-0.206,0.503-0.315c0.199-0.114,0.422-0.252,0.688-0.354
				c0.131-0.056,0.266-0.114,0.408-0.175c0.148-0.047,0.301-0.093,0.456-0.143c0.313-0.105,0.658-0.157,1.014-0.215
				c0.358-0.038,0.729-0.076,1.109-0.054c0.378,0.011,0.763,0.049,1.139,0.115c0.379,0.065,0.747,0.166,1.107,0.27
				c0.355,0.116,0.704,0.237,1.027,0.384c0.328,0.134,0.633,0.287,0.919,0.439c0.291,0.142,0.548,0.309,0.79,0.45
				c0.48,0.295,0.86,0.57,1.122,0.761c0.262,0.195,0.408,0.313,0.408,0.313c-5.836-8.472-11.939-4.995-13.604-0.441
				c0,0,2.645,2.768,4.996,2.768c2.35,0,6.268-3.013,8.608-2.326C106.29,350.342,106.117,350.269,105.823,350.128z"/>
			<g>
				<polygon style="fill:#FFFFFF;" points="124.623,319.866 113.38,305.998 108.82,309.696 120.063,323.561 119.782,323.789 				"/>
				<path style="fill:#FFFFFF;" d="M109.149,311.251c0.236,1.17-0.186,2.453-1.217,3.29l-0.258,0.21
					c-1.553,1.259-1.845,3.473-0.648,4.945l2.879,3.554c1.198,1.476,3.422,1.647,4.975,0.389l0.258-0.21
					c1.031-0.834,2.376-0.982,3.471-0.51L109.149,311.251z"/>
			</g>
		</g>
	</g>
	<g>
		<path style="fill:#78B400;" d="M113.71,152.836c0,19.033-15.429,34.463-34.462,34.463c-19.033,0-34.463-15.431-34.463-34.463
			c0-19.034,15.431-34.464,34.463-34.464C98.282,118.372,113.71,133.802,113.71,152.836z"/>
		<g>
			<g>
				<path style="fill:#FFFFFF;" d="M82.832,139.743l5.982-8.662l1.127-1.634h-6.664l-3.117,4.775
					C81.564,135.645,82.687,137.456,82.832,139.743z"/>
				<path style="fill:#FFFFFF;" d="M86.519,152.15l-12.266,0.019l5.473-7.926c-1.369-0.636-2.929-1.625-4.22-2.897l-7.759,11.882
					l-2.414,3.694l4.386,0.006l12.706,0.021L69.72,179.566l18.793-23.674l2.979-3.75L86.519,152.15z"/>
			</g>
			<path style="fill:#FFFFFF;" d="M82.37,150.092c-0.183-7.834,7.274-4.701,9.121-4.93C90.758,148.802,86.889,152.719,82.37,150.092
				z"/>
			<path style="fill:#FFFFFF;" d="M89.533,147.174c-0.017,0.011-0.049,0.039-0.111,0.078c-0.071,0.049-0.177,0.143-0.331,0.215
				c-0.306,0.165-0.77,0.338-1.323,0.532c-1.111,0.375-2.615,0.835-3.981,1.553c-0.332,0.195-0.674,0.371-0.974,0.598
				c-0.155,0.111-0.314,0.205-0.453,0.321c-0.144,0.116-0.282,0.233-0.414,0.348c-0.283,0.216-0.476,0.498-0.702,0.725
				c-0.162,0.209-0.299,0.419-0.433,0.613l-0.658,0.006l0.083-0.167c0.183-0.248,0.359-0.53,0.582-0.801
				c0.254-0.243,0.48-0.542,0.79-0.769c0.293-0.237,0.603-0.485,0.945-0.673c0.332-0.222,0.698-0.383,1.057-0.559
				c1.448-0.663,2.986-1.034,4.114-1.344c0.563-0.155,1.033-0.282,1.344-0.425c0.166-0.056,0.27-0.133,0.348-0.183
				C89.472,147.202,89.516,147.18,89.533,147.174z"/>
			<path style="fill:#FFFFFF;" d="M73.617,130.441c0,0-0.717,2.9,0.06,6.561c0.745,3.524,4.889,6.152,7.299,7.02
				c-0.02-0.253-0.054-0.505-0.103-0.758c-0.033-0.171-0.074-0.335-0.121-0.505c-0.116-0.423-0.281-0.839-0.452-1.222
				c-0.231-0.553-0.532-1.059-0.812-1.536c-0.301-0.464-0.594-0.901-0.896-1.284c-0.258-0.355-0.512-0.669-0.744-0.957
				c-0.28-0.348-0.526-0.643-0.723-0.881c-0.377-0.435-0.574-0.696-0.574-0.696l0.02-0.014c0,0,0.213,0.246,0.602,0.662
				c0.204,0.226,0.464,0.492,0.75,0.813c0.253,0.28,0.532,0.601,0.827,0.949c0.314,0.375,0.642,0.799,0.969,1.255
				c0.314,0.472,0.642,0.965,0.921,1.523c0.15,0.301,0.293,0.607,0.417,0.936c0.116,0.28,0.205,0.567,0.28,0.862
				c0.047,0.17,0.088,0.327,0.116,0.483C84.781,135.22,75.228,131.86,73.617,130.441z"/>
			<g>
				<path style="fill:#FFFFFF;" d="M80.06,141.041c-0.184-0.362-0.379-0.711-0.571-1.042c-0.238-0.367-0.471-0.71-0.707-1.028
					c0.234,0.322,0.468,0.664,0.704,1.03C79.679,140.331,79.876,140.68,80.06,141.041z"/>
				<path style="fill:#FFFFFF;" d="M81.059,142.307c0.005,0.013,0.008,0.026,0.013,0.038c-0.004-0.012-0.007-0.025-0.012-0.036
					c-0.052-0.134-0.115-0.256-0.173-0.385C80.944,142.053,81.008,142.172,81.059,142.307z"/>
				<path style="fill:#FFFFFF;" d="M76.938,136.575c-0.234-0.257-0.361-0.404-0.361-0.404h-0.001
					C76.579,136.176,76.706,136.321,76.938,136.575z"/>
				<path style="fill:#FFFFFF;" d="M77.127,136.878c-0.055-0.063-0.099-0.115-0.146-0.171c0.047,0.056,0.089,0.107,0.143,0.17
					c0.098,0.119,0.209,0.251,0.328,0.396C77.334,137.128,77.223,136.997,77.127,136.878z"/>
				<path style="fill:#FFFFFF;" d="M81.543,144.145c-0.034-0.234-0.076-0.439-0.125-0.646c0.012,0.05,0.03,0.105,0.038,0.153
					c0,0,0,0,0,0.008c-0.056,0.15-0.123,0.306-0.191,0.463c-0.095-0.027-0.191-0.06-0.287-0.102
					c-0.02-0.253-0.054-0.505-0.103-0.758c-0.025-0.133-0.06-0.264-0.095-0.396c0.035,0.132,0.07,0.263,0.095,0.397
					c0.116,0.614,0.16,1.245,0.143,1.87c0,0.63-0.132,1.249-0.264,1.857c-0.178,0.592-0.372,1.178-0.636,1.708
					c-0.249,0.542-0.56,1.028-0.858,1.488c-0.315,0.448-0.636,0.851-0.951,1.205c-0.266,0.293-0.525,0.548-0.769,0.769h0.796
					c0.121-0.121,0.254-0.254,0.381-0.398c0.332-0.371,0.669-0.795,1.002-1.266c0.31-0.477,0.63-0.99,0.896-1.561
					c0.282-0.558,0.487-1.176,0.67-1.807c0.149-0.641,0.281-1.306,0.288-1.98C81.597,144.814,81.553,144.475,81.543,144.145z"/>
				<polygon style="fill:#FFFFFF;" points="76.556,136.18 76.554,136.181 76.554,136.181 				"/>
			</g>
		</g>
	</g>
	<g>
		
			<ellipse transform="matrix(0.0128 -0.9999 0.9999 0.0128 129.8283 620.4058)" style="fill:#78B400;" cx="379.115" cy="244.452" rx="34.464" ry="34.463"/>
		<g>
			<path style="fill:#FFFFFF;" d="M383.431,269.513c-2.048,0-3.953-0.904-5.367-2.543c-1.557-1.807-2.381-4.354-2.381-7.367h1.197
				c0,5.983,3.396,8.71,6.551,8.71c3.122,0,6.483-2.727,6.483-8.71v-9.005h1.199v9.005
				C391.113,266.412,387.129,269.513,383.431,269.513z"/>
			<rect x="374.79" y="258.511" style="fill:#FFFFFF;" width="2.983" height="2.98"/>
			<path style="fill:#FFFFFF;" d="M393.991,246.708l-0.268-7.158l-0.006-0.209l-2.805-3.021l-0.216-5.311l-6.226-5.304l-0.852,0.996
				l5.788,4.931l0.209,5.21l-1.305,0.036c-0.48,0.011-0.858,0.407-0.858,0.887l0.087,6.144c0,0.3-0.146,0.575-0.394,0.737
				l-1.748,1.187c-0.24,0.162-0.385,0.438-0.385,0.732l0.024,1.672v0.233c0.006,0.229,0.103,0.45,0.264,0.613
				c0.168,0.161,0.39,0.25,0.624,0.25l0.951-0.011l0.054,4.545c0.007,0.478,0.403,0.867,0.889,0.86l2.325-0.029l0.546-0.006
				c0.487-0.012,0.873-0.408,0.868-0.888l-0.059-4.542l0.155-0.006c0.485,0,0.868-0.403,0.861-0.881l-0.016-1.644L393.991,246.708z
				 M387.811,253.984l-0.04-2.926c-0.013-0.965,0.762-1.756,1.727-1.773h0.168l0.059,4.674L387.811,253.984z"/>
			<path style="fill:#FFFFFF;" d="M379.241,257.356c0,0.477-0.189,0.934-0.526,1.271c-0.338,0.337-0.795,0.526-1.271,0.526
				l-2.325-0.001c-0.993,0-1.798-0.805-1.798-1.798v-0.6l5.921,0.001V257.356z"/>
			<g>
				<path style="fill:#FFFFFF;" d="M378.218,234.869c-0.302,0.029-0.618,0.068-0.936,0.091c-0.231,0.016-0.466,0.031-0.699,0.047
					c0.003,0.793,0.009,1.594,0.013,2.396c0.107-0.003,0.218-0.004,0.325-0.007c0.342-0.015,0.685-0.027,1.016-0.041
					c0.338-0.001,0.644-0.066,0.945-0.1c0.02-0.002,0.033-0.006,0.053-0.008c-0.009-0.837-0.026-1.672-0.063-2.495
					C378.662,234.804,378.444,234.859,378.218,234.869z"/>
				<path style="fill:#FFFFFF;" d="M378.938,237.637c-0.185,0.044-0.377,0.085-0.571,0.096c-0.326,0.031-0.667,0.079-1.009,0.101
					c-0.251,0.016-0.504,0.031-0.759,0.049c0,0.124,0.002,0.248,0.002,0.372c-0.002,0.667-0.008,1.333-0.011,1.996
					c0.078,0,0.158-0.002,0.236-0.002c0.358-0.015,0.718-0.029,1.066-0.043c0.356-0.002,0.679-0.065,1-0.101
					c0.019-0.002,0.036-0.005,0.057-0.009c-0.001-0.55-0.006-1.103-0.007-1.653C378.943,238.174,378.938,237.906,378.938,237.637z"
					/>
				<path style="fill:#FFFFFF;" d="M378.351,251.481c0.087-0.007,0.169-0.018,0.255-0.029c0.081-0.769,0.145-1.58,0.19-2.442
					c-0.114,0.022-0.225,0.046-0.345,0.057c-0.34,0.036-0.7,0.107-1.059,0.119c-0.291,0.016-0.588,0.03-0.889,0.044
					c-0.012,0.692-0.024,1.368-0.033,1.992c-0.002,0.13-0.004,0.246-0.008,0.374c0.314-0.012,0.624-0.021,0.93-0.031
					C377.73,251.558,378.04,251.507,378.351,251.481z"/>
				<path style="fill:#FFFFFF;" d="M378.954,240.507c-0.16,0.035-0.322,0.065-0.489,0.077c-0.343,0.033-0.7,0.091-1.059,0.11
					c-0.271,0.016-0.544,0.032-0.82,0.048c-0.003,0.792-0.008,1.575-0.014,2.348c0.045,0,0.089,0,0.136,0
					c0.358-0.013,0.716-0.026,1.065-0.039c0.355-0.004,0.68-0.064,1.005-0.097c0.061-0.007,0.114-0.018,0.176-0.025
					C378.957,242.129,378.957,241.322,378.954,240.507z"/>
				<path style="fill:#FFFFFF;" d="M378.494,246.248c-0.346,0.037-0.712,0.104-1.074,0.119c-0.287,0.015-0.58,0.029-0.871,0.046
					c-0.009,0.816-0.02,1.602-0.037,2.36c0.355-0.014,0.704-0.025,1.048-0.038c0.359-0.006,0.685-0.063,1.015-0.09
					c0.083-0.006,0.159-0.018,0.238-0.028c0.038-0.785,0.066-1.599,0.089-2.437C378.768,246.21,378.635,246.236,378.494,246.248z"/>
				<path style="fill:#FFFFFF;" d="M378.752,223.424c-0.066,0.036-0.147,0.08-0.24,0.129c-0.095,0.049-0.199,0.115-0.326,0.145
					c-0.017,0.006-0.036,0.011-0.05,0.016c0.083,0.405,0.166,0.834,0.242,1.281c0.044,0.255,0.085,0.532,0.127,0.8
					c0.038-0.008,0.082-0.016,0.116-0.024c0.622-0.148,1.018-0.335,1.018-0.337c-0.223-0.775-0.456-1.491-0.691-2.145
					C378.948,223.29,378.883,223.348,378.752,223.424z"/>
				<path style="fill:#FFFFFF;" d="M380.085,228.414c0.145-0.041,0.242-0.073,0.297-0.092c-0.234-1.025-0.481-1.992-0.742-2.889
					c-0.001,0.002-0.082,0.073-0.245,0.172c-0.164,0.095-0.405,0.236-0.715,0.346c-0.045,0.016-0.097,0.029-0.143,0.047
					c0.133,0.838,0.257,1.73,0.371,2.665c0.084-0.013,0.172-0.026,0.25-0.038C379.546,228.568,379.859,228.461,380.085,228.414z"/>
				<path style="fill:#FFFFFF;" d="M378.046,232.001c-0.277,0.027-0.563,0.057-0.85,0.08c-0.209,0.013-0.42,0.028-0.632,0.044
					c0.005,0.797,0.011,1.608,0.016,2.432c0.137-0.004,0.274-0.009,0.414-0.013c0.318-0.017,0.634-0.028,0.941-0.041
					c0.313,0,0.593-0.061,0.873-0.096c0.016-0.003,0.031-0.006,0.047-0.008c-0.041-0.854-0.09-1.694-0.148-2.52
					C378.494,231.933,378.274,231.992,378.046,232.001z"/>
				<path style="fill:#FFFFFF;" d="M376.955,226.337c-0.155,0.008-0.311,0.016-0.467,0.023c0.012,0.794,0.029,1.634,0.044,2.51
					c0.183-0.011,0.364-0.021,0.545-0.031c0.26-0.013,0.516-0.024,0.764-0.036c0.221,0.002,0.42-0.04,0.612-0.07
					c-0.08-0.918-0.17-1.795-0.271-2.619c-0.004,0.001-0.007,0.002-0.011,0.004c-0.185,0.047-0.372,0.112-0.582,0.135
					C377.384,226.277,377.167,226.33,376.955,226.337z"/>
				<path style="fill:#FFFFFF;" d="M374.77,228.805c0.419,0.014,0.859,0.04,1.302,0.065c0.015-0.876,0.03-1.716,0.044-2.51
					c-0.157-0.008-0.315-0.016-0.471-0.023c-0.217-0.007-0.427-0.06-0.633-0.086c-0.206-0.021-0.396-0.09-0.58-0.136
					c-0.004,0-0.009-0.002-0.01-0.004c-0.102,0.825-0.191,1.703-0.274,2.621C374.347,228.764,374.553,228.807,374.77,228.805z"/>
				<path style="fill:#FFFFFF;" d="M376.215,254.439c-0.023-0.696-0.046-1.513-0.065-2.421c-0.323-0.017-0.646-0.033-0.961-0.05
					c-0.34-0.009-0.666-0.085-0.984-0.123c-0.059-0.006-0.112-0.021-0.169-0.031c0.002,0.02,0.004,0.039,0.005,0.058
					c0.11,0.912,0.241,1.746,0.407,2.474c0.271,0.026,0.544,0.059,0.824,0.064C375.582,254.42,375.897,254.43,376.215,254.439z"/>
				<path style="fill:#FFFFFF;" d="M378.458,243.411c-0.343,0.035-0.7,0.098-1.057,0.114c-0.273,0.014-0.553,0.03-0.832,0.046
					c-0.002,0.544-0.007,1.08-0.007,1.609c-0.002,0.256-0.006,0.502-0.008,0.755c0.015,0,0.031,0,0.048,0
					c0.366-0.012,0.73-0.024,1.088-0.039c0.362-0.005,0.695-0.064,1.028-0.095c0.066-0.006,0.13-0.018,0.196-0.025
					c0-0.05,0-0.097,0.002-0.148c0.021-0.75,0.029-1.52,0.032-2.296C378.79,243.368,378.627,243.399,378.458,243.411z"/>
				<path style="fill:#FFFFFF;" d="M377.316,223.938c-0.278,0.035-0.575,0.061-0.871,0.088c0.009,0.4,0.018,0.822,0.023,1.262
					c0.006,0.237,0.009,0.492,0.014,0.741c0.153-0.006,0.307-0.011,0.458-0.017c0.213-0.005,0.409-0.039,0.609-0.053
					c0.196-0.016,0.385-0.057,0.565-0.082c0.014-0.001,0.025-0.006,0.036-0.007c-0.036-0.274-0.066-0.561-0.103-0.823
					c-0.063-0.434-0.124-0.851-0.188-1.248c-0.027,0.01-0.056,0.018-0.084,0.027C377.632,223.866,377.476,223.935,377.316,223.938z"
					/>
				<path style="fill:#FFFFFF;" d="M373.918,231.563c0.218,0.037,0.44,0.081,0.678,0.082c0.465,0.017,0.954,0.048,1.443,0.077
					c0.002-0.13,0.002-0.265,0.004-0.393c0.003-0.717,0.012-1.409,0.02-2.089c-0.452-0.033-0.906-0.066-1.332-0.11
					c-0.213-0.006-0.415-0.063-0.608-0.11c-0.063,0.733-0.125,1.482-0.185,2.257C373.933,231.37,373.926,231.469,373.918,231.563z"
					/>
				<path style="fill:#FFFFFF;" d="M377.9,231.652c0.28,0.001,0.535-0.059,0.784-0.091c-0.007-0.094-0.012-0.191-0.019-0.285
					c-0.06-0.775-0.121-1.524-0.185-2.257c-0.199,0.048-0.404,0.107-0.616,0.112c-0.248,0.022-0.504,0.044-0.763,0.067
					c-0.186,0.014-0.376,0.028-0.564,0.041c0.011,0.681,0.018,1.372,0.024,2.089c0,0.125,0,0.255,0,0.382
					c0.161-0.008,0.324-0.013,0.481-0.022C377.335,231.677,377.622,231.663,377.9,231.652z"/>
				<path style="fill:#FFFFFF;" d="M374.431,234.484c0.511,0.02,1.049,0.061,1.593,0.088c0.004-0.829,0.01-1.645,0.016-2.448
					c-0.466-0.033-0.927-0.068-1.365-0.109c-0.274-0.008-0.53-0.086-0.775-0.14c-0.058,0.828-0.111,1.672-0.149,2.529
					C373.968,234.44,374.192,234.48,374.431,234.484z"/>
				<path style="fill:#FFFFFF;" d="M376.225,254.867c-0.327-0.015-0.657-0.029-0.98-0.044c-0.237-0.008-0.468-0.041-0.695-0.074
					c0.143,0.539,0.312,1.007,0.516,1.381c0.247,0.468,0.555,0.767,0.815,0.882c0.129,0.059,0.237,0.082,0.31,0.094
					c0.074,0.006,0.113,0.011,0.113,0.011s-0.021-0.591-0.059-1.622C376.238,255.305,376.232,255.086,376.225,254.867z"/>
				<path style="fill:#FFFFFF;" d="M375.41,220.713c-0.242,0.727-0.445,1.713-0.636,2.881c0.033,0.008,0.063,0.012,0.094,0.018
					c0.143,0.021,0.291,0.068,0.449,0.066c0.157,0.008,0.321,0.016,0.486,0.026c0.121,0.008,0.239,0.018,0.365,0.026
					c0.025-1.078,0.058-2.01,0.075-2.718c0.037-1.03,0.059-1.62,0.059-1.62c0.008,0.007-0.181-0.014-0.364,0.215
					C375.749,219.821,375.575,220.209,375.41,220.713z"/>
				<path style="fill:#FFFFFF;" d="M376.436,223.73c0.292-0.021,0.584-0.043,0.857-0.056c0.164,0.003,0.305-0.042,0.443-0.065
					c0.034-0.005,0.061-0.01,0.09-0.016c-0.188-1.168-0.392-2.153-0.634-2.881c-0.168-0.504-0.339-0.892-0.528-1.105
					c-0.183-0.229-0.37-0.208-0.362-0.215c0,0,0.02,0.59,0.057,1.62C376.376,221.721,376.408,222.652,376.436,223.73z"/>
				<path style="fill:#FFFFFF;" d="M376.692,219.585c0.204,0.208,0.419,0.587,0.609,1.089c0.278,0.725,0.55,1.704,0.798,2.87
					c0.012-0.002,0.026-0.005,0.036-0.007c0.128-0.017,0.234-0.061,0.335-0.087c0.099-0.03,0.186-0.056,0.258-0.077
					c0.139-0.049,0.22-0.084,0.22-0.084c-0.837-2.309-1.732-3.777-2.552-3.883C376.471,219.422,376.575,219.465,376.692,219.585z"/>
				<path style="fill:#FFFFFF;" d="M373.876,223.374c0.072,0.021,0.159,0.047,0.26,0.077c0.1,0.025,0.204,0.069,0.332,0.088
					c0.01,0.002,0.024,0.003,0.036,0.006c0.246-1.167,0.521-2.146,0.799-2.871c0.19-0.502,0.406-0.881,0.61-1.089
					c0.114-0.12,0.22-0.162,0.294-0.179c-0.82,0.107-1.715,1.575-2.551,3.883C373.657,223.289,373.737,223.324,373.876,223.374z"/>
				<path style="fill:#FFFFFF;" d="M380.139,254.273c-0.252,0.079-0.524,0.176-0.822,0.238c-0.297,0.066-0.607,0.16-0.941,0.192
					c-0.033,0.003-0.068,0.009-0.099,0.012c-0.186,0.58-0.396,1.081-0.634,1.476c-0.28,0.467-0.633,0.754-0.906,0.853
					c-0.138,0.049-0.248,0.065-0.322,0.069c-0.075,0.002-0.111,0.004-0.111,0.004s-0.039-0.002-0.113-0.004
					c-0.074-0.004-0.185-0.021-0.323-0.069c-0.272-0.099-0.626-0.386-0.905-0.853c-0.237-0.396-0.446-0.895-0.634-1.476
					c-0.034-0.003-0.066-0.009-0.099-0.013c-0.335-0.031-0.644-0.128-0.942-0.191c-0.298-0.063-0.57-0.159-0.822-0.238
					c-0.197-0.062-0.373-0.133-0.536-0.199c0.934,2.187,2.35,3.531,4.375,3.531c2.024,0,3.439-1.345,4.373-3.531
					C380.514,254.143,380.338,254.211,380.139,254.273z"/>
				<path style="fill:#FFFFFF;" d="M378.156,254.344c0.168-0.726,0.297-1.563,0.404-2.472c0.005-0.017,0.005-0.037,0.006-0.053
					c-0.08,0.015-0.162,0.034-0.249,0.042c-0.32,0.036-0.658,0.107-0.991,0.114c-0.288,0.015-0.58,0.029-0.872,0.043
					c-0.018,0.908-0.043,1.725-0.064,2.421c0.317-0.01,0.635-0.02,0.946-0.029C377.622,254.404,377.89,254.372,378.156,254.344z"/>
				<path style="fill:#FFFFFF;" d="M376.724,257.012c0.262-0.115,0.568-0.414,0.817-0.882c0.202-0.372,0.371-0.842,0.513-1.381
					c-0.231,0.033-0.466,0.069-0.701,0.076c-0.32,0.013-0.649,0.027-0.975,0.042c-0.007,0.219-0.012,0.438-0.016,0.627
					c-0.038,1.031-0.059,1.622-0.059,1.622s0.036-0.005,0.111-0.011C376.486,257.094,376.595,257.07,376.724,257.012z"/>
				<path style="fill:#FFFFFF;" d="M374.204,248.666c0.395,0.025,0.803,0.078,1.22,0.09c0.221,0.004,0.442,0.007,0.666,0.011
					c-0.016-0.756-0.027-1.542-0.036-2.355c-0.393-0.021-0.787-0.046-1.165-0.07c-0.365-0.009-0.714-0.099-1.054-0.146
					c-0.048-0.006-0.09-0.018-0.133-0.025c0.022,0.842,0.053,1.663,0.09,2.452C373.926,248.641,374.063,248.659,374.204,248.666z"/>
				<path style="fill:#FFFFFF;" d="M374.331,251.492c0.343,0.025,0.695,0.074,1.056,0.081c0.249,0.007,0.501,0.014,0.755,0.019
					c-0.002-0.125-0.004-0.24-0.009-0.37c-0.009-0.627-0.021-1.3-0.033-1.992c-0.365-0.02-0.729-0.039-1.081-0.06
					c-0.359-0.01-0.705-0.095-1.041-0.137c-0.058-0.007-0.111-0.023-0.17-0.034c0.046,0.867,0.11,1.684,0.192,2.455
					C374.109,251.469,374.216,251.485,374.331,251.492z"/>
				<path style="fill:#FFFFFF;" d="M372.519,228.415c0.229,0.047,0.537,0.154,0.927,0.21c0.077,0.012,0.168,0.025,0.252,0.038
					c0.115-0.937,0.236-1.828,0.368-2.667c-0.045-0.016-0.097-0.029-0.141-0.045c-0.312-0.109-0.549-0.251-0.716-0.346
					c-0.162-0.099-0.245-0.17-0.247-0.172c-0.258,0.896-0.507,1.863-0.741,2.889C372.277,228.341,372.373,228.373,372.519,228.415z"
					/>
				<path style="fill:#FFFFFF;" d="M374.092,223.553c-0.094-0.051-0.176-0.093-0.244-0.129c-0.125-0.076-0.191-0.134-0.191-0.135
					c-0.238,0.653-0.469,1.369-0.694,2.145c0.004,0.002,0.398,0.189,1.021,0.337c0.037,0.009,0.078,0.017,0.115,0.024
					c0.043-0.268,0.086-0.545,0.129-0.8c0.075-0.447,0.156-0.876,0.241-1.281c-0.016-0.005-0.036-0.01-0.05-0.016
					C374.291,223.668,374.185,223.6,374.092,223.553z"/>
				<path style="fill:#FFFFFF;" d="M373.653,240.105c0.175,0.027,0.354,0.052,0.539,0.057c0.504,0.025,1.03,0.075,1.56,0.099
					c0.09-0.002,0.175-0.002,0.261-0.003c-0.002-0.667-0.008-1.335-0.01-2.004c0.002-0.125,0.002-0.251,0.002-0.375
					c-0.463-0.031-0.924-0.063-1.363-0.1c-0.34-0.01-0.659-0.102-0.967-0.157c-0.004,0-0.006-0.001-0.008-0.001
					c0,0.273-0.007,0.547-0.005,0.821C373.66,238.998,373.654,239.553,373.653,240.105z"/>
				<path style="fill:#FFFFFF;" d="M374.289,237.323c0.517,0.025,1.06,0.069,1.608,0.096c0.038-0.001,0.074-0.001,0.11-0.002
					c0.003-0.809,0.009-1.614,0.016-2.411c-0.473-0.034-0.94-0.067-1.382-0.107c-0.313-0.009-0.606-0.099-0.89-0.153
					c-0.008-0.002-0.014-0.004-0.021-0.006c-0.037,0.832-0.054,1.672-0.064,2.515C373.868,237.288,374.071,237.318,374.289,237.323z
					"/>
				<path style="fill:#FFFFFF;" d="M373.651,242.939c0.179,0.028,0.357,0.053,0.547,0.059c0.463,0.025,0.947,0.074,1.438,0.096
					c0.131-0.001,0.262-0.001,0.394-0.001c-0.004-0.775-0.006-1.562-0.013-2.353c-0.451-0.029-0.899-0.06-1.329-0.093
					c-0.356-0.009-0.696-0.103-1.023-0.156c-0.004-0.002-0.01-0.003-0.013-0.004C373.648,241.314,373.648,242.13,373.651,242.939z"
					/>
				<path style="fill:#FFFFFF;" d="M375.28,223.936c-0.166-0.005-0.314-0.072-0.46-0.112c-0.027-0.008-0.053-0.016-0.079-0.023
					c-0.061,0.396-0.123,0.813-0.184,1.246c-0.038,0.264-0.069,0.549-0.105,0.823c0.011,0.003,0.022,0.007,0.036,0.008
					c0.181,0.024,0.369,0.066,0.568,0.081c0.199,0.017,0.402,0.049,0.612,0.053c0.148,0.006,0.301,0.011,0.453,0.016
					c0.004-0.248,0.008-0.503,0.011-0.74c0.007-0.44,0.017-0.861,0.024-1.264c-0.126-0.011-0.25-0.021-0.376-0.031
					C375.611,223.973,375.441,223.953,375.28,223.936z"/>
				<path style="fill:#FFFFFF;" d="M375.513,245.928c0.178,0.001,0.357,0.004,0.536,0.005c-0.003-0.252-0.006-0.498-0.008-0.752
					c-0.002-0.529-0.007-1.068-0.01-1.611c-0.412-0.027-0.829-0.052-1.227-0.081c-0.357-0.008-0.698-0.1-1.028-0.149
					c-0.041-0.007-0.082-0.017-0.123-0.025c0.004,0.784,0.014,1.559,0.032,2.314c0.001,0.053,0.004,0.104,0.006,0.156
					c0.152,0.022,0.309,0.043,0.47,0.05C374.598,245.86,375.05,245.911,375.513,245.928z"/>
			</g>
			<path style="fill:#FFFFFF;" d="M364.24,230.682c8.991,3.222,8.594,27.037,12.417,27.037c-7.092,0-9.122-4.958-9.122-12.577
				C367.535,234.128,364.24,230.682,364.24,230.682z"/>
			<path style="fill:#FFFFFF;" d="M375.701,257.719c6.219,0,7.494-4.485,7.494-11.978c0-7.493,3.447-10.189,3.447-10.189
				s-5.022,2.388-6.293,8.648C379.074,250.461,378.624,257.111,375.701,257.719z"/>
			<g>
				<path style="fill:#FFFFFF;" d="M380.313,240.151c-0.239,0.068-0.504,0.146-0.781,0.213c-0.005,0.837-0.015,1.665-0.025,2.486
					c0.062-0.01,0.13-0.018,0.191-0.026c0.089-0.013,0.165-0.031,0.248-0.048c0.343-1.134,0.798-2.127,1.311-2.993
					C381,239.903,380.689,240.046,380.313,240.151z"/>
				<path style="fill:#FFFFFF;" d="M379.457,244.916c0.057-0.287,0.106-0.576,0.165-0.863c0.067-0.33,0.152-0.644,0.237-0.954
					c-0.12,0.034-0.231,0.068-0.36,0.1C379.49,243.778,379.473,244.347,379.457,244.916z"/>
				<path style="fill:#FFFFFF;" d="M379.201,231.484c0.063-0.011,0.131-0.021,0.19-0.028c0.405-0.058,0.736-0.17,0.984-0.223
					c0.273-0.072,0.443-0.133,0.478-0.145c0.034-0.012,0.027-0.004-0.024,0.026c-0.055,0.025-0.143,0.095-0.277,0.153
					c-0.241,0.091-0.571,0.281-1.007,0.396c-0.099,0.027-0.217,0.058-0.322,0.085c0.067,0.841,0.127,1.699,0.179,2.571
					c0.063-0.01,0.13-0.019,0.191-0.027c0.419-0.06,0.766-0.173,1.03-0.229c0.326-0.086,0.544-0.159,0.619-0.186
					c0.069-0.026,0.087-0.03,0.038-0.003c-0.05,0.025-0.15,0.105-0.315,0.18c-0.263,0.104-0.628,0.31-1.104,0.439
					c-0.135,0.038-0.291,0.077-0.441,0.116c0.048,0.844,0.079,1.696,0.098,2.554c0.073-0.011,0.153-0.022,0.225-0.032
					c0.424-0.059,0.779-0.173,1.061-0.233c0.377-0.096,0.641-0.181,0.755-0.223c0.114-0.041,0.155-0.056,0.113-0.032
					c-0.044,0.022-0.159,0.113-0.354,0.203c-0.281,0.117-0.674,0.335-1.183,0.477c-0.19,0.054-0.401,0.109-0.611,0.165
					c0.004,0.317,0.015,0.635,0.015,0.952c0,0.525-0.003,1.049-0.004,1.573c0.085-0.013,0.185-0.026,0.269-0.039
					c0.42-0.056,0.774-0.166,1.063-0.227c0.192-0.05,0.359-0.096,0.5-0.137c0.193-0.314,0.393-0.611,0.598-0.892
					c-0.297-3.626-0.867-7.262-1.58-10.386c-0.01,0.006-0.017,0.011-0.032,0.019c-0.054,0.027-0.131,0.088-0.237,0.129
					c-0.219,0.078-0.515,0.252-0.904,0.352c-0.085,0.023-0.184,0.047-0.272,0.07c0.089,0.757,0.173,1.53,0.244,2.332
					C379.188,231.316,379.195,231.401,379.201,231.484z"/>
				<path style="fill:#FFFFFF;" d="M380.037,251.446c-0.247,0.075-0.513,0.167-0.803,0.229c-0.094,0.021-0.19,0.045-0.286,0.069
					c-0.035,0.165-0.069,0.329-0.107,0.491c-0.122,0.756-0.268,1.465-0.443,2.085c0.296-0.029,0.582-0.08,0.855-0.116
					c0.295-0.037,0.567-0.108,0.821-0.163c0.25-0.061,0.48-0.119,0.685-0.179c1.36-3.358,1.643-8.576,1.295-13.943
					c-0.483,0.771-0.919,1.658-1.261,2.668c0.402-0.102,0.711-0.194,0.883-0.261c0.189-0.065,0.278-0.102,0.249-0.086
					c-0.029,0.012-0.159,0.112-0.39,0.228c-0.213,0.096-0.487,0.237-0.826,0.37c-0.139,0.434-0.265,0.884-0.359,1.361
					c-0.097,0.463-0.184,0.929-0.272,1.394c0.207-0.045,0.403-0.094,0.576-0.13c0.474-0.115,0.844-0.227,1.064-0.307
					c0.222-0.08,0.333-0.129,0.314-0.116c-0.023,0.011-0.16,0.115-0.41,0.242c-0.294,0.136-0.715,0.359-1.253,0.52
					c-0.104,0.03-0.232,0.063-0.345,0.097c-0.161,0.879-0.313,1.753-0.463,2.607c0.327-0.043,0.623-0.126,0.883-0.182
					c0.483-0.116,0.871-0.23,1.115-0.321c0.246-0.086,0.376-0.145,0.362-0.138c-0.013,0.007-0.15,0.111-0.41,0.246
					c-0.285,0.139-0.697,0.354-1.226,0.514c-0.243,0.072-0.505,0.157-0.785,0.223c-0.156,0.884-0.311,1.735-0.479,2.545
					c0.075-0.01,0.15-0.022,0.222-0.034c0.307-0.035,0.582-0.113,0.833-0.168c0.472-0.111,0.859-0.224,1.115-0.317
					c0.254-0.093,0.397-0.154,0.389-0.151c-0.006,0.004-0.139,0.104-0.395,0.238C380.918,251.094,380.53,251.293,380.037,251.446z"
					/>
			</g>
			<g>
				<path style="fill:#FFFFFF;" d="M371.683,227.381c0.276-1.137,0.557-2.16,0.843-3.074c-0.542-0.918-1.649-2.193-3.791-2.741
					c1.483,1.148,2.219,4.954,2.558,7.555C371.416,228.531,371.545,227.947,371.683,227.381z"/>
			</g>
			<g>
				<path style="fill:#FFFFFF;" d="M380.922,227.381c0.353,1.458,0.663,2.999,0.93,4.569c1.065-4.109,4.267-8.661,4.267-8.661
					c-1.95,0-4.27,2.338-5.336,3.539C380.83,227.013,380.875,227.191,380.922,227.381z"/>
			</g>
			<g>
				<path style="fill:#FFFFFF;" d="M372.74,240.279c-0.421-0.101-0.77-0.27-1.049-0.363c-0.015-0.005-0.023-0.011-0.039-0.016
					c0.298,0.926,0.574,1.877,0.83,2.837c0.195,0.038,0.398,0.079,0.613,0.111c-0.011-0.822-0.023-1.65-0.025-2.487
					C372.957,240.333,372.847,240.304,372.74,240.279z"/>
				<path style="fill:#FFFFFF;" d="M373.16,245.467c-0.026-0.743-0.044-1.503-0.058-2.272c-0.087-0.021-0.176-0.044-0.26-0.063
					c-0.101-0.023-0.187-0.058-0.279-0.087C372.773,243.851,372.972,244.661,373.16,245.467z"/>
				<path style="fill:#FFFFFF;" d="M371.588,239.704c0.228,0.061,0.487,0.128,0.779,0.185c0.218,0.04,0.458,0.085,0.703,0.122
					c-0.002-0.521-0.004-1.046-0.004-1.57c0-0.319,0.007-0.639,0.017-0.957c-0.092-0.022-0.191-0.045-0.278-0.065
					c-0.427-0.104-0.774-0.28-1.044-0.374c-0.287-0.097-0.502-0.224-0.656-0.3c-0.151-0.082-0.228-0.139-0.228-0.139
					s0.163,0.067,0.453,0.158c0.294,0.08,0.706,0.211,1.217,0.303c0.167,0.03,0.357,0.061,0.541,0.093
					c0.018-0.856,0.05-1.708,0.097-2.551c-0.076-0.018-0.157-0.037-0.229-0.055c-0.421-0.104-0.757-0.284-1.011-0.373
					c-0.226-0.077-0.393-0.181-0.511-0.241c-0.119-0.066-0.177-0.107-0.177-0.107s0.151,0.06,0.421,0.145
					c0.277,0.068,0.657,0.193,1.132,0.273c0.12,0.021,0.261,0.043,0.392,0.065c0.051-0.872,0.113-1.727,0.179-2.568
					c-0.071-0.019-0.152-0.039-0.224-0.056c-0.408-0.104-0.725-0.282-0.962-0.365c-0.164-0.058-0.282-0.14-0.369-0.184
					c-0.082-0.047-0.127-0.076-0.127-0.076s0.138,0.054,0.389,0.128c0.253,0.059,0.598,0.174,1.031,0.242
					c0.088,0.014,0.19,0.029,0.282,0.044c0.01-0.08,0.015-0.165,0.021-0.246c0.07-0.802,0.156-1.575,0.246-2.332
					c-0.091-0.023-0.19-0.048-0.272-0.07c-0.391-0.1-0.689-0.275-0.905-0.352c-0.109-0.041-0.181-0.102-0.236-0.129
					c-0.014-0.008-0.023-0.013-0.034-0.019c-0.627,2.753-1.139,5.902-1.459,9.093C371.058,238.159,371.33,238.922,371.588,239.704z"
					/>
				<path style="fill:#FFFFFF;" d="M370.609,239.145c-0.43,5.638-0.188,11.2,1.235,14.722c0.202,0.057,0.433,0.117,0.685,0.176
					c0.256,0.056,0.526,0.127,0.823,0.163c0.273,0.038,0.556,0.089,0.854,0.116c-0.201-0.709-0.368-1.52-0.5-2.406
					c-0.009-0.054-0.015-0.112-0.023-0.167c-0.131-0.031-0.258-0.063-0.383-0.092c-0.308-0.066-0.584-0.171-0.834-0.251
					c-0.461-0.146-0.823-0.331-1.073-0.458c-0.248-0.133-0.377-0.229-0.377-0.229s0.158,0.072,0.439,0.169
					c0.278,0.099,0.686,0.22,1.178,0.331c0.246,0.053,0.51,0.118,0.8,0.154c0.066,0.011,0.138,0.02,0.204,0.033
					c-0.041-0.302-0.077-0.617-0.115-0.934c-0.119-0.523-0.235-1.057-0.356-1.608c-0.047-0.013-0.096-0.025-0.141-0.035
					c-0.35-0.078-0.655-0.201-0.925-0.287c-0.458-0.148-0.814-0.334-1.061-0.459c-0.247-0.135-0.375-0.227-0.375-0.227
					s0.169,0.074,0.47,0.177c0.301,0.102,0.732,0.232,1.256,0.345c0.219,0.048,0.454,0.099,0.699,0.137
					c-0.189-0.86-0.386-1.744-0.594-2.642c-0.22-0.071-0.426-0.146-0.602-0.205c-0.432-0.139-0.764-0.316-0.996-0.434
					c-0.23-0.123-0.35-0.211-0.35-0.211s0.17,0.074,0.477,0.177c0.308,0.099,0.747,0.233,1.286,0.346
					c0.033,0.008,0.077,0.014,0.111,0.02c-0.219-0.936-0.454-1.882-0.709-2.821c-0.316-0.117-0.58-0.25-0.761-0.341
					c-0.204-0.111-0.311-0.189-0.311-0.189s0.17,0.073,0.473,0.171c0.149,0.048,0.333,0.105,0.546,0.163
					c-0.286-1.051-0.596-2.091-0.939-3.092c-0.059-0.036-0.097-0.062-0.097-0.062s0.033,0.013,0.087,0.032
					C370.677,239.331,370.644,239.24,370.609,239.145z"/>
			</g>
		</g>
	</g>
	<g>
		<path style="fill:#78B400;" d="M132.939,68.347V33.191h14.668v4.883h-7.559v9.57h5.352v5h-5.352v10.82h7.559v4.883H132.939z"/>
		<path style="fill:#78B400;" d="M149.854,56.609V44.968c0-6.953,2.363-12.461,10.195-12.461c7.285,0,9.863,4.941,9.863,11.719
			v3.027h-6.992v-3.242c0-2.617-0.176-6.016-2.871-6.016c-2.676,0-3.086,3.027-3.086,5.195v15.176c0,2.188,0.391,5.176,3.086,5.176
			c2.598,0,2.93-3.301,2.91-6.035v-3.613h6.953l-0.02,2.969c-0.098,6.328-2.207,12.168-9.844,12.168
			C152.236,69.031,149.854,63.386,149.854,56.609z"/>
		<path style="fill:#78B400;" d="M172.783,56.785V44.968c0-6.973,2.441-12.461,10.273-12.461c7.832,0,10.293,5.488,10.293,12.461
			v11.641c0,6.777-2.5,12.422-10.293,12.422C175.303,69.031,172.783,63.562,172.783,56.785z M186.24,58.386V43.191
			c0-2.246-0.469-5.195-3.184-5.195c-2.695,0-3.164,2.988-3.164,5.195v15.195c0,2.227,0.449,5.176,3.164,5.176
			C185.811,63.562,186.24,60.652,186.24,58.386z"/>
		<path style="fill:#006482;" d="M197.08,68.347V33.191h14.668v4.883h-7.559v9.57h5.352v5h-5.352v10.82h7.559v4.883H197.08z"/>
		<path style="fill:#006482;" d="M214.443,68.347V33.171h5.117l7.715,18.398V33.171h5.898v35.176h-4.922l-7.695-19.512v19.512
			H214.443z"/>
		<path style="fill:#006482;" d="M237.354,68.347V33.191h14.668v4.883h-7.559v9.57h5.352v5h-5.352v10.82h7.559v4.883H237.354z"/>
		<path style="fill:#006482;" d="M254.717,68.347V33.191h7.734c6.797,0,11.211,2.422,11.211,9.258c0,3.086-0.43,7.031-4.785,8.906
			c1.758,5.586,3.535,11.152,5.508,16.992h-7.363l-4.023-16.191h-1.172v16.191H254.717z M261.826,47.82h2.031
			c2.363,0,2.734-3.496,2.734-4.805c0-1.289-0.273-4.609-2.402-4.609h-2.363V47.82z"/>
		<path style="fill:#006482;" d="M276.396,57.351V44.968c0-7.051,2.481-12.461,10.371-12.461c7.422,0,10.059,4.941,10.059,11.719
			v2.07h-6.797v-2.461c0-2.578-0.273-5.84-3.262-5.84c-2.773,0-3.262,2.891-3.262,5.195v15.176c0,2.324,0.469,5.176,3.262,5.176
			c2.793,0,3.242-3.086,3.242-5.371v-2.813h-4.023v-5.098h11.133v18.086h-4.883l-0.898-2.461c-1.191,1.875-3.652,3.145-5.977,3.145
			C278.779,69.031,276.396,62.8,276.396,57.351z"/>
		<path style="fill:#006482;" d="M305.596,68.347V56.726l-6.602-23.535h6.699l3.281,15.449c1.191-5.078,2.422-10.371,3.613-15.449
			h6.504l-6.621,23.535v11.621H305.596z"/>
	</g>
</g>
</svg>
